<mxfile host="app.diagrams.net" agent="Mozilla/5.0 (Windows NT 10.0; Win64; x64) AppleWebKit/537.36 (KHTML, like Gecko) Chrome/134.0.0.0 Safari/537.36 OPR/119.0.0.0" version="27.1.6">
  <diagram name="PÃ¡gina-1" id="5ThlbGbb-_COVaDFNzEl">
    <mxGraphModel dx="2146" dy="1889" grid="1" gridSize="10" guides="1" tooltips="1" connect="1" arrows="1" fold="1" page="1" pageScale="1" pageWidth="827" pageHeight="1169" math="0" shadow="0">
      <root>
        <mxCell id="0" />
        <mxCell id="1" parent="0" />
        <mxCell id="gVIaWP4cgMclWxlhAjpL-1" value="Muestra" style="swimlane;fontStyle=1;align=center;verticalAlign=top;childLayout=stackLayout;horizontal=1;startSize=26;horizontalStack=0;resizeParent=1;resizeParentMax=0;resizeLast=0;collapsible=1;marginBottom=0;whiteSpace=wrap;html=1;" vertex="1" parent="1">
          <mxGeometry x="190" y="-180" width="300" height="340" as="geometry" />
        </mxCell>
        <mxCell id="gVIaWP4cgMclWxlhAjpL-2" value="- tipoInsecto: OpinionImagen&lt;div&gt;- usuario: Usuario&lt;br&gt;- ubicacion: Ubicacion&lt;/div&gt;&lt;div&gt;- fechaCreacion: LocalDate&lt;/div&gt;" style="text;strokeColor=none;fillColor=none;align=left;verticalAlign=top;spacingLeft=4;spacingRight=4;overflow=hidden;rotatable=0;points=[[0,0.5],[1,0.5]];portConstraint=eastwest;whiteSpace=wrap;html=1;" vertex="1" parent="gVIaWP4cgMclWxlhAjpL-1">
          <mxGeometry y="26" width="300" height="74" as="geometry" />
        </mxCell>
        <mxCell id="gVIaWP4cgMclWxlhAjpL-3" value="" style="line;strokeWidth=1;fillColor=none;align=left;verticalAlign=middle;spacingTop=-1;spacingLeft=3;spacingRight=3;rotatable=0;labelPosition=right;points=[];portConstraint=eastwest;strokeColor=inherit;" vertex="1" parent="gVIaWP4cgMclWxlhAjpL-1">
          <mxGeometry y="100" width="300" height="8" as="geometry" />
        </mxCell>
        <mxCell id="gVIaWP4cgMclWxlhAjpL-4" value="&lt;u&gt;+ new(Ubicacion, Usuario)&lt;/u&gt;&lt;div&gt;+ getUbicacion(): Ubicacion&lt;div&gt;+ getUsuario&lt;span style=&quot;background-color: transparent; color: light-dark(rgb(0, 0, 0), rgb(255, 255, 255));&quot;&gt;(): Usuario&lt;/span&gt;&lt;/div&gt;&lt;div&gt;&lt;span style=&quot;background-color: transparent; color: light-dark(rgb(0, 0, 0), rgb(255, 255, 255));&quot;&gt;+ getTipoInsecto&lt;/span&gt;&lt;span style=&quot;background-color: transparent; color: light-dark(rgb(0, 0, 0), rgb(255, 255, 255));&quot;&gt;(): OpinionImagen&lt;/span&gt;&lt;/div&gt;&lt;div&gt;&lt;span style=&quot;background-color: transparent; color: light-dark(rgb(0, 0, 0), rgb(255, 255, 255));&quot;&gt;+ getFechaCreacion&lt;/span&gt;&lt;span style=&quot;background-color: transparent; color: light-dark(rgb(0, 0, 0), rgb(255, 255, 255));&quot;&gt;(): LocalDate&lt;/span&gt;&lt;/div&gt;&lt;div&gt;&lt;span style=&quot;background-color: transparent; color: light-dark(rgb(0, 0, 0), rgb(255, 255, 255));&quot;&gt;+ getOpiniones&lt;/span&gt;&lt;span style=&quot;background-color: transparent; color: light-dark(rgb(0, 0, 0), rgb(255, 255, 255));&quot;&gt;(): List &amp;lt;Opinion&amp;gt;&amp;nbsp;&lt;/span&gt;&lt;/div&gt;&lt;div&gt;&lt;span style=&quot;background-color: transparent; color: light-dark(rgb(0, 0, 0), rgb(255, 255, 255));&quot;&gt;+ cambiarEstado&lt;/span&gt;&lt;span style=&quot;background-color: transparent; color: light-dark(rgb(0, 0, 0), rgb(255, 255, 255));&quot;&gt;(EstadoMuestra): void&lt;/span&gt;&lt;/div&gt;&lt;div&gt;&lt;span style=&quot;background-color: transparent; color: light-dark(rgb(0, 0, 0), rgb(255, 255, 255));&quot;&gt;+ getEstadoMuestra&lt;/span&gt;&lt;span style=&quot;background-color: transparent; color: light-dark(rgb(0, 0, 0), rgb(255, 255, 255));&quot;&gt;(): EstadoMuestra&lt;/span&gt;&lt;/div&gt;&lt;div&gt;&lt;span style=&quot;background-color: transparent; color: light-dark(rgb(0, 0, 0), rgb(255, 255, 255));&quot;&gt;+ agregarOpinion&lt;/span&gt;&lt;span style=&quot;background-color: transparent; color: light-dark(rgb(0, 0, 0), rgb(255, 255, 255));&quot;&gt;(Opinion): void&lt;/span&gt;&lt;/div&gt;&lt;div&gt;+ elUsuarioNoOpino(Usuario): Boolean&lt;/div&gt;&lt;div&gt;+ opinionDeUsuario(Usuario): Opinion&lt;/div&gt;&lt;div&gt;+ esVerificada&lt;span style=&quot;background-color: transparent; color: light-dark(rgb(0, 0, 0), rgb(255, 255, 255));&quot;&gt;(): Boolean&lt;/span&gt;&lt;/div&gt;&lt;div&gt;+ opinionesExpertos(): List &amp;lt;Opinion&amp;gt;&lt;/div&gt;&lt;/div&gt;&lt;div&gt;+ actualizarOpinion(List&amp;lt;OpinionImagen&amp;gt;): void&amp;nbsp;&lt;/div&gt;&lt;div&gt;+ puedeOpinar(Usuario): Boolean&lt;/div&gt;" style="text;strokeColor=none;fillColor=none;align=left;verticalAlign=top;spacingLeft=4;spacingRight=4;overflow=hidden;rotatable=0;points=[[0,0.5],[1,0.5]];portConstraint=eastwest;whiteSpace=wrap;html=1;" vertex="1" parent="gVIaWP4cgMclWxlhAjpL-1">
          <mxGeometry y="108" width="300" height="232" as="geometry" />
        </mxCell>
        <mxCell id="gVIaWP4cgMclWxlhAjpL-5" value="Usuario" style="swimlane;fontStyle=1;align=center;verticalAlign=top;childLayout=stackLayout;horizontal=1;startSize=26;horizontalStack=0;resizeParent=1;resizeParentMax=0;resizeLast=0;collapsible=1;marginBottom=0;whiteSpace=wrap;html=1;" vertex="1" parent="1">
          <mxGeometry x="400" y="270" width="160" height="86" as="geometry" />
        </mxCell>
        <mxCell id="gVIaWP4cgMclWxlhAjpL-6" value="+ field: type" style="text;strokeColor=none;fillColor=none;align=left;verticalAlign=top;spacingLeft=4;spacingRight=4;overflow=hidden;rotatable=0;points=[[0,0.5],[1,0.5]];portConstraint=eastwest;whiteSpace=wrap;html=1;" vertex="1" parent="gVIaWP4cgMclWxlhAjpL-5">
          <mxGeometry y="26" width="160" height="26" as="geometry" />
        </mxCell>
        <mxCell id="gVIaWP4cgMclWxlhAjpL-7" value="" style="line;strokeWidth=1;fillColor=none;align=left;verticalAlign=middle;spacingTop=-1;spacingLeft=3;spacingRight=3;rotatable=0;labelPosition=right;points=[];portConstraint=eastwest;strokeColor=inherit;" vertex="1" parent="gVIaWP4cgMclWxlhAjpL-5">
          <mxGeometry y="52" width="160" height="8" as="geometry" />
        </mxCell>
        <mxCell id="gVIaWP4cgMclWxlhAjpL-8" value="+ method(type): type" style="text;strokeColor=none;fillColor=none;align=left;verticalAlign=top;spacingLeft=4;spacingRight=4;overflow=hidden;rotatable=0;points=[[0,0.5],[1,0.5]];portConstraint=eastwest;whiteSpace=wrap;html=1;" vertex="1" parent="gVIaWP4cgMclWxlhAjpL-5">
          <mxGeometry y="60" width="160" height="26" as="geometry" />
        </mxCell>
        <mxCell id="gVIaWP4cgMclWxlhAjpL-9" value="Organizacion" style="swimlane;fontStyle=1;align=center;verticalAlign=top;childLayout=stackLayout;horizontal=1;startSize=26;horizontalStack=0;resizeParent=1;resizeParentMax=0;resizeLast=0;collapsible=1;marginBottom=0;whiteSpace=wrap;html=1;fillColor=#008a00;strokeColor=#005700;fontColor=#ffffff;" vertex="1" parent="1">
          <mxGeometry x="1320" y="-200" width="330" height="250" as="geometry">
            <mxRectangle x="1440" y="-50" width="110" height="30" as="alternateBounds" />
          </mxGeometry>
        </mxCell>
        <mxCell id="gVIaWP4cgMclWxlhAjpL-10" value="-nombre: String&lt;div&gt;&lt;br&gt;&lt;/div&gt;" style="text;strokeColor=none;fillColor=none;align=left;verticalAlign=top;spacingLeft=4;spacingRight=4;overflow=hidden;rotatable=0;points=[[0,0.5],[1,0.5]];portConstraint=eastwest;whiteSpace=wrap;html=1;" vertex="1" parent="gVIaWP4cgMclWxlhAjpL-9">
          <mxGeometry y="26" width="330" height="34" as="geometry" />
        </mxCell>
        <mxCell id="gVIaWP4cgMclWxlhAjpL-11" value="" style="line;strokeWidth=1;fillColor=none;align=left;verticalAlign=middle;spacingTop=-1;spacingLeft=3;spacingRight=3;rotatable=0;labelPosition=right;points=[];portConstraint=eastwest;strokeColor=inherit;" vertex="1" parent="gVIaWP4cgMclWxlhAjpL-9">
          <mxGeometry y="60" width="330" height="8" as="geometry" />
        </mxCell>
        <mxCell id="gVIaWP4cgMclWxlhAjpL-12" value="&lt;u&gt;+ new(String, Ubicacion, TipoOrganizacion,&amp;nbsp; &amp;nbsp; FuncionalidadExterna, FuncionalidadExterna)&lt;/u&gt;&lt;div&gt;+ getNombre&lt;span style=&quot;background-color: transparent; color: light-dark(rgb(0, 0, 0), rgb(255, 255, 255));&quot;&gt;(): String&lt;/span&gt;&lt;/div&gt;&lt;div&gt;&lt;span style=&quot;background-color: transparent; color: light-dark(rgb(0, 0, 0), rgb(255, 255, 255));&quot;&gt;+ setNombre(String): void&lt;/span&gt;&lt;/div&gt;&lt;div&gt;&lt;span style=&quot;background-color: transparent; color: light-dark(rgb(0, 0, 0), rgb(255, 255, 255));&quot;&gt;+ getUbicacion(): Ubicacion&lt;/span&gt;&lt;/div&gt;&lt;div&gt;&lt;span style=&quot;background-color: transparent; color: light-dark(rgb(0, 0, 0), rgb(255, 255, 255));&quot;&gt;+ setUbicacion(Ubicacion): void&lt;/span&gt;&lt;/div&gt;&lt;div&gt;&lt;span style=&quot;background-color: transparent; color: light-dark(rgb(0, 0, 0), rgb(255, 255, 255));&quot;&gt;+ getTipoOrganizacion&lt;/span&gt;&lt;span style=&quot;background-color: transparent; color: light-dark(rgb(0, 0, 0), rgb(255, 255, 255));&quot;&gt;(): TipoOrganizacion&lt;/span&gt;&lt;/div&gt;&lt;div&gt;&lt;span style=&quot;background-color: transparent; color: light-dark(rgb(0, 0, 0), rgb(255, 255, 255));&quot;&gt;+ setTipoOrganizacion&lt;/span&gt;&lt;span style=&quot;background-color: transparent; color: light-dark(rgb(0, 0, 0), rgb(255, 255, 255));&quot;&gt;(TipoOrganizacion): void&lt;/span&gt;&lt;/div&gt;&lt;div&gt;+ getFuncionalidadCarga&lt;span style=&quot;background-color: transparent; color: light-dark(rgb(0, 0, 0), rgb(255, 255, 255));&quot;&gt;(): FuncionalidadExterna&lt;/span&gt;&lt;/div&gt;&lt;div&gt;&lt;span style=&quot;background-color: transparent; color: light-dark(rgb(0, 0, 0), rgb(255, 255, 255));&quot;&gt;+ setFuncionalidadCarga&lt;/span&gt;&lt;span style=&quot;background-color: transparent; color: light-dark(rgb(0, 0, 0), rgb(255, 255, 255));&quot;&gt;(FuncionalidadExterna): void&lt;/span&gt;&lt;/div&gt;&lt;div&gt;&lt;span style=&quot;background-color: transparent; color: light-dark(rgb(0, 0, 0), rgb(255, 255, 255));&quot;&gt;+ getFuncionalidadValidacion&lt;/span&gt;&lt;span style=&quot;background-color: transparent; color: light-dark(rgb(0, 0, 0), rgb(255, 255, 255));&quot;&gt;(): FuncionalidadExterna&lt;/span&gt;&lt;/div&gt;&lt;div&gt;&lt;span style=&quot;background-color: transparent; color: light-dark(rgb(0, 0, 0), rgb(255, 255, 255));&quot;&gt;+ setFuncionalidadValidacion&lt;/span&gt;&lt;span style=&quot;background-color: transparent; color: light-dark(rgb(0, 0, 0), rgb(255, 255, 255));&quot;&gt;(FuncionalidadExterna): void&lt;/span&gt;&lt;/div&gt;" style="text;strokeColor=none;fillColor=none;align=left;verticalAlign=top;spacingLeft=4;spacingRight=4;overflow=hidden;rotatable=0;points=[[0,0.5],[1,0.5]];portConstraint=eastwest;whiteSpace=wrap;html=1;" vertex="1" parent="gVIaWP4cgMclWxlhAjpL-9">
          <mxGeometry y="68" width="330" height="182" as="geometry" />
        </mxCell>
        <mxCell id="gVIaWP4cgMclWxlhAjpL-13" value="ZonaDeCobertura" style="swimlane;fontStyle=1;align=center;verticalAlign=top;childLayout=stackLayout;horizontal=1;startSize=26;horizontalStack=0;resizeParent=1;resizeParentMax=0;resizeLast=0;collapsible=1;marginBottom=0;whiteSpace=wrap;html=1;fillColor=#008a00;strokeColor=#005700;fontColor=#ffffff;" vertex="1" parent="1">
          <mxGeometry x="955.4200000000001" y="150" width="410" height="300" as="geometry">
            <mxRectangle x="955.4200000000001" y="150" width="140" height="30" as="alternateBounds" />
          </mxGeometry>
        </mxCell>
        <mxCell id="gVIaWP4cgMclWxlhAjpL-14" value="- nombre: String&lt;div&gt;- radio: Int&lt;/div&gt;&lt;div&gt;- muestrasEnZona: List &amp;lt;Muestra&amp;gt;&amp;nbsp;&lt;/div&gt;&lt;div&gt;&lt;br&gt;&lt;/div&gt;" style="text;strokeColor=none;fillColor=none;align=left;verticalAlign=top;spacingLeft=4;spacingRight=4;overflow=hidden;rotatable=0;points=[[0,0.5],[1,0.5]];portConstraint=eastwest;whiteSpace=wrap;html=1;" vertex="1" parent="gVIaWP4cgMclWxlhAjpL-13">
          <mxGeometry y="26" width="410" height="74" as="geometry" />
        </mxCell>
        <mxCell id="gVIaWP4cgMclWxlhAjpL-15" value="" style="line;strokeWidth=1;fillColor=none;align=left;verticalAlign=middle;spacingTop=-1;spacingLeft=3;spacingRight=3;rotatable=0;labelPosition=right;points=[];portConstraint=eastwest;strokeColor=inherit;" vertex="1" parent="gVIaWP4cgMclWxlhAjpL-13">
          <mxGeometry y="100" width="410" height="8" as="geometry" />
        </mxCell>
        <mxCell id="gVIaWP4cgMclWxlhAjpL-16" value="+ &lt;u&gt;new(String, Ubicacion, Int)&lt;/u&gt;&lt;div&gt;+ getNombre(): String&lt;/div&gt;&lt;div&gt;+ setNombre(String): void&lt;/div&gt;&lt;div&gt;+ getRadio(): int&lt;/div&gt;&lt;div&gt;+ setRadio&lt;span style=&quot;background-color: transparent; color: light-dark(rgb(0, 0, 0), rgb(255, 255, 255));&quot;&gt;(int): void&lt;/span&gt;&lt;/div&gt;&lt;div&gt;+ getEpicentro(): Ubicacion&lt;/div&gt;&lt;div&gt;+ setEpicentro&lt;span style=&quot;background-color: transparent; color: light-dark(rgb(0, 0, 0), rgb(255, 255, 255));&quot;&gt;(Ubicacion): void&lt;/span&gt;&lt;/div&gt;&lt;div&gt;+ getMuestrasEnZona&lt;span style=&quot;background-color: transparent; color: light-dark(rgb(0, 0, 0), rgb(255, 255, 255));&quot;&gt;(): List &amp;lt;Muestra&amp;gt;&lt;/span&gt;&lt;/div&gt;&lt;div&gt;&lt;span style=&quot;background-color: transparent; color: light-dark(rgb(0, 0, 0), rgb(255, 255, 255));&quot;&gt;+ getSubscritosACarga(): List &amp;lt;IObserver&amp;gt;&lt;/span&gt;&lt;/div&gt;&lt;div&gt;&lt;span style=&quot;background-color: transparent; color: light-dark(rgb(0, 0, 0), rgb(255, 255, 255));&quot;&gt;+ getSubscritosAValidacion(): List&amp;lt;IObserver&amp;gt;&lt;/span&gt;&lt;/div&gt;&lt;div&gt;&lt;span style=&quot;background-color: transparent; color: light-dark(rgb(0, 0, 0), rgb(255, 255, 255));&quot;&gt;+ getMuestrasEnZona(): List &amp;lt;Muestra&amp;gt;&lt;/span&gt;&lt;/div&gt;&lt;div&gt;+ zonasSolapadas(&lt;span style=&quot;background-color: transparent; color: light-dark(rgb(0, 0, 0), rgb(255, 255, 255));&quot;&gt;List &amp;lt;ZonaDeCobertura&amp;gt;&lt;/span&gt;&lt;span style=&quot;background-color: transparent; color: light-dark(rgb(0, 0, 0), rgb(255, 255, 255));&quot;&gt;): List &amp;lt;ZonaDeCobertura&amp;gt;&lt;/span&gt;&lt;/div&gt;" style="text;strokeColor=none;fillColor=none;align=left;verticalAlign=top;spacingLeft=4;spacingRight=4;overflow=hidden;rotatable=0;points=[[0,0.5],[1,0.5]];portConstraint=eastwest;whiteSpace=wrap;html=1;" vertex="1" parent="gVIaWP4cgMclWxlhAjpL-13">
          <mxGeometry y="108" width="410" height="192" as="geometry" />
        </mxCell>
        <mxCell id="gVIaWP4cgMclWxlhAjpL-17" value="UsuarioEspecialista" style="swimlane;fontStyle=1;align=center;verticalAlign=top;childLayout=stackLayout;horizontal=1;startSize=26;horizontalStack=0;resizeParent=1;resizeParentMax=0;resizeLast=0;collapsible=1;marginBottom=0;whiteSpace=wrap;html=1;" vertex="1" parent="1">
          <mxGeometry x="105" y="270" width="160" height="86" as="geometry" />
        </mxCell>
        <mxCell id="gVIaWP4cgMclWxlhAjpL-18" value="+ field: type" style="text;strokeColor=none;fillColor=none;align=left;verticalAlign=top;spacingLeft=4;spacingRight=4;overflow=hidden;rotatable=0;points=[[0,0.5],[1,0.5]];portConstraint=eastwest;whiteSpace=wrap;html=1;" vertex="1" parent="gVIaWP4cgMclWxlhAjpL-17">
          <mxGeometry y="26" width="160" height="26" as="geometry" />
        </mxCell>
        <mxCell id="gVIaWP4cgMclWxlhAjpL-19" value="" style="line;strokeWidth=1;fillColor=none;align=left;verticalAlign=middle;spacingTop=-1;spacingLeft=3;spacingRight=3;rotatable=0;labelPosition=right;points=[];portConstraint=eastwest;strokeColor=inherit;" vertex="1" parent="gVIaWP4cgMclWxlhAjpL-17">
          <mxGeometry y="52" width="160" height="8" as="geometry" />
        </mxCell>
        <mxCell id="gVIaWP4cgMclWxlhAjpL-20" value="+ method(type): type" style="text;strokeColor=none;fillColor=none;align=left;verticalAlign=top;spacingLeft=4;spacingRight=4;overflow=hidden;rotatable=0;points=[[0,0.5],[1,0.5]];portConstraint=eastwest;whiteSpace=wrap;html=1;" vertex="1" parent="gVIaWP4cgMclWxlhAjpL-17">
          <mxGeometry y="60" width="160" height="26" as="geometry" />
        </mxCell>
        <mxCell id="gVIaWP4cgMclWxlhAjpL-21" value="&lt;p style=&quot;margin:0px;margin-top:4px;text-align:center;&quot;&gt;&lt;i&gt;&amp;lt;&amp;lt;Interface&amp;gt;&amp;gt;&lt;/i&gt;&lt;br&gt;&lt;b&gt;EstadoMuestra&lt;/b&gt;&lt;/p&gt;&lt;hr size=&quot;1&quot; style=&quot;border-style:solid;&quot;&gt;&lt;p style=&quot;margin:0px;margin-left:4px;&quot;&gt;+ puedeOpinar(Muestra,Usuario): Boolean&lt;/p&gt;&lt;p style=&quot;margin:0px;margin-left:4px;&quot;&gt;+ esVerificada():Boolean&lt;/p&gt;&lt;p style=&quot;margin:0px;margin-left:4px;&quot;&gt;+ verificarCambioEstado(): void&lt;/p&gt;" style="verticalAlign=top;align=left;overflow=fill;html=1;whiteSpace=wrap;fillColor=#dae8fc;strokeColor=#6c8ebf;" vertex="1" parent="1">
          <mxGeometry x="210" y="-400" width="240" height="110" as="geometry" />
        </mxCell>
        <mxCell id="gVIaWP4cgMclWxlhAjpL-30" value="&amp;lt;&amp;lt;ennumeration&amp;gt;&amp;gt;&lt;br&gt;OpinionImagen&lt;br&gt;&lt;br&gt;&lt;div&gt;&lt;br&gt;&lt;/div&gt;" style="swimlane;fontStyle=1;align=center;verticalAlign=top;childLayout=stackLayout;horizontal=1;startSize=40;horizontalStack=0;resizeParent=1;resizeParentMax=0;resizeLast=0;collapsible=1;marginBottom=0;whiteSpace=wrap;html=1;" vertex="1" parent="1">
          <mxGeometry x="-245" y="250" width="230" height="170" as="geometry" />
        </mxCell>
        <mxCell id="gVIaWP4cgMclWxlhAjpL-31" value="VINCHUCA_INFESTANS&lt;div&gt;VINCHUCA_SORDIDA&lt;/div&gt;&lt;div&gt;VINCHUCA_GUASAYANA&lt;/div&gt;&lt;div&gt;CHINCHE_FOLIADA&lt;/div&gt;&lt;div&gt;PHTIA_CHINCHE&lt;/div&gt;&lt;div&gt;NO_DEFINIDA&lt;/div&gt;&lt;div&gt;IMAGEN_POCO_CLARA&lt;/div&gt;" style="text;strokeColor=none;fillColor=none;align=left;verticalAlign=top;spacingLeft=4;spacingRight=4;overflow=hidden;rotatable=0;points=[[0,0.5],[1,0.5]];portConstraint=eastwest;whiteSpace=wrap;html=1;" vertex="1" parent="gVIaWP4cgMclWxlhAjpL-30">
          <mxGeometry y="40" width="230" height="130" as="geometry" />
        </mxCell>
        <mxCell id="gVIaWP4cgMclWxlhAjpL-32" value="Opinion" style="swimlane;fontStyle=1;align=center;verticalAlign=top;childLayout=stackLayout;horizontal=1;startSize=26;horizontalStack=0;resizeParent=1;resizeParentMax=0;resizeLast=0;collapsible=1;marginBottom=0;whiteSpace=wrap;html=1;" vertex="1" parent="1">
          <mxGeometry x="-230" y="-50" width="220" height="190" as="geometry" />
        </mxCell>
        <mxCell id="gVIaWP4cgMclWxlhAjpL-33" value="- fechaPublicacion: LocalDate&lt;div&gt;- usuario: Usuario&lt;/div&gt;" style="text;strokeColor=none;fillColor=none;align=left;verticalAlign=top;spacingLeft=4;spacingRight=4;overflow=hidden;rotatable=0;points=[[0,0.5],[1,0.5]];portConstraint=eastwest;whiteSpace=wrap;html=1;" vertex="1" parent="gVIaWP4cgMclWxlhAjpL-32">
          <mxGeometry y="26" width="220" height="54" as="geometry" />
        </mxCell>
        <mxCell id="gVIaWP4cgMclWxlhAjpL-34" value="" style="line;strokeWidth=1;fillColor=none;align=left;verticalAlign=middle;spacingTop=-1;spacingLeft=3;spacingRight=3;rotatable=0;labelPosition=right;points=[];portConstraint=eastwest;strokeColor=inherit;" vertex="1" parent="gVIaWP4cgMclWxlhAjpL-32">
          <mxGeometry y="80" width="220" height="8" as="geometry" />
        </mxCell>
        <mxCell id="gVIaWP4cgMclWxlhAjpL-35" value="+ &lt;u&gt;new(Usuario, OpinionImagen)&lt;/u&gt;&lt;div&gt;+ getFechaPublicacion(): LocalDate&lt;/div&gt;&lt;div&gt;+ getOpinion(): OpinionImagen&lt;/div&gt;&lt;div&gt;+ getUsuario(): Usuario&lt;/div&gt;" style="text;strokeColor=none;fillColor=none;align=left;verticalAlign=top;spacingLeft=4;spacingRight=4;overflow=hidden;rotatable=0;points=[[0,0.5],[1,0.5]];portConstraint=eastwest;whiteSpace=wrap;html=1;" vertex="1" parent="gVIaWP4cgMclWxlhAjpL-32">
          <mxGeometry y="88" width="220" height="102" as="geometry" />
        </mxCell>
        <mxCell id="gVIaWP4cgMclWxlhAjpL-36" value="" style="endArrow=open;endFill=1;endSize=12;html=1;rounded=0;exitX=0.01;exitY=0.324;exitDx=0;exitDy=0;exitPerimeter=0;entryX=1;entryY=0.5;entryDx=0;entryDy=0;" edge="1" parent="1" source="gVIaWP4cgMclWxlhAjpL-4" target="gVIaWP4cgMclWxlhAjpL-33">
          <mxGeometry width="160" relative="1" as="geometry">
            <mxPoint x="-240" y="288" as="sourcePoint" />
            <mxPoint x="-170" y="260" as="targetPoint" />
          </mxGeometry>
        </mxCell>
        <mxCell id="gVIaWP4cgMclWxlhAjpL-37" value="Ubicacion" style="swimlane;fontStyle=1;align=center;verticalAlign=top;childLayout=stackLayout;horizontal=1;startSize=26;horizontalStack=0;resizeParent=1;resizeParentMax=0;resizeLast=0;collapsible=1;marginBottom=0;whiteSpace=wrap;html=1;" vertex="1" parent="1">
          <mxGeometry x="955.4200000000001" y="620" width="420" height="250" as="geometry" />
        </mxCell>
        <mxCell id="gVIaWP4cgMclWxlhAjpL-38" value="- latitud: double&lt;div&gt;- longitud: double&amp;nbsp;&lt;/div&gt;" style="text;strokeColor=none;fillColor=none;align=left;verticalAlign=top;spacingLeft=4;spacingRight=4;overflow=hidden;rotatable=0;points=[[0,0.5],[1,0.5]];portConstraint=eastwest;whiteSpace=wrap;html=1;" vertex="1" parent="gVIaWP4cgMclWxlhAjpL-37">
          <mxGeometry y="26" width="420" height="44" as="geometry" />
        </mxCell>
        <mxCell id="gVIaWP4cgMclWxlhAjpL-39" value="" style="line;strokeWidth=1;fillColor=none;align=left;verticalAlign=middle;spacingTop=-1;spacingLeft=3;spacingRight=3;rotatable=0;labelPosition=right;points=[];portConstraint=eastwest;strokeColor=inherit;" vertex="1" parent="gVIaWP4cgMclWxlhAjpL-37">
          <mxGeometry y="70" width="420" height="8" as="geometry" />
        </mxCell>
        <mxCell id="gVIaWP4cgMclWxlhAjpL-40" value="&lt;div&gt;+ &lt;u&gt;new(double, double)&lt;/u&gt;&lt;/div&gt;&lt;div&gt;+ getLatitud(): double&lt;/div&gt;&lt;div&gt;+ getLongitur(): double&lt;/div&gt;&lt;div&gt;+ setLatitud(double): void&lt;/div&gt;&lt;div&gt;+ setLongitud(double): void&lt;/div&gt;+ distanciaEntre(Ubicacion, Ubicacion) : double&lt;div&gt;+ ubicacionesAMenosDe(List&amp;lt;Ubicacion&amp;gt;, Int) :&amp;nbsp;&lt;span style=&quot;background-color: transparent; color: light-dark(rgb(0, 0, 0), rgb(255, 255, 255));&quot;&gt;List&amp;lt;Ubicacion&amp;gt;&lt;/span&gt;&lt;/div&gt;&lt;div&gt;&lt;span style=&quot;background-color: transparent; color: light-dark(rgb(0, 0, 0), rgb(255, 255, 255));&quot;&gt;+ muestrasAMenosDe(Muestra, Int) : List&amp;lt;Muestra&amp;gt; ESTO VA EN SISTEMA O ZONA DE COBERTURA? PORQUE NECESITAMOS LA LISTA DE MUESTRAS, NO VA EN UBICACION&lt;/span&gt;&lt;/div&gt;" style="text;strokeColor=none;fillColor=none;align=left;verticalAlign=top;spacingLeft=4;spacingRight=4;overflow=hidden;rotatable=0;points=[[0,0.5],[1,0.5]];portConstraint=eastwest;whiteSpace=wrap;html=1;" vertex="1" parent="gVIaWP4cgMclWxlhAjpL-37">
          <mxGeometry y="78" width="420" height="172" as="geometry" />
        </mxCell>
        <mxCell id="gVIaWP4cgMclWxlhAjpL-41" value="&amp;lt;&amp;lt;ennumeration&amp;gt;&amp;gt;&lt;br&gt;TipoOrganizacion&lt;br&gt;&lt;br&gt;&lt;div&gt;&lt;br&gt;&lt;/div&gt;" style="swimlane;fontStyle=1;align=center;verticalAlign=top;childLayout=stackLayout;horizontal=1;startSize=40;horizontalStack=0;resizeParent=1;resizeParentMax=0;resizeLast=0;collapsible=1;marginBottom=0;whiteSpace=wrap;html=1;" vertex="1" parent="1">
          <mxGeometry x="1800" y="-240" width="230" height="130" as="geometry" />
        </mxCell>
        <mxCell id="gVIaWP4cgMclWxlhAjpL-42" value="SALUD&lt;div&gt;EDUCATIVA&lt;/div&gt;&lt;div&gt;CULTURAL&lt;/div&gt;&lt;div&gt;ASISTENCIA&lt;/div&gt;" style="text;strokeColor=none;fillColor=none;align=left;verticalAlign=top;spacingLeft=4;spacingRight=4;overflow=hidden;rotatable=0;points=[[0,0.5],[1,0.5]];portConstraint=eastwest;whiteSpace=wrap;html=1;" vertex="1" parent="gVIaWP4cgMclWxlhAjpL-41">
          <mxGeometry y="40" width="230" height="90" as="geometry" />
        </mxCell>
        <mxCell id="gVIaWP4cgMclWxlhAjpL-43" value="&lt;p style=&quot;margin:0px;margin-top:4px;text-align:center;&quot;&gt;&lt;br&gt;&lt;i&gt;&amp;lt;&amp;lt;Interface&amp;gt;&amp;gt;&lt;/i&gt;&lt;br&gt;&lt;b&gt;IBuscadorMuestras&lt;/b&gt;&lt;/p&gt;&lt;hr size=&quot;1&quot;&gt;&lt;p style=&quot;margin:0px;margin-left:4px;&quot;&gt;+filtrar (List&amp;lt;Muestra&amp;gt;): List &amp;lt;Muestra&amp;gt;&lt;/p&gt;" style="verticalAlign=top;align=left;overflow=fill;fontSize=12;fontFamily=Helvetica;html=1;whiteSpace=wrap;fillColor=light-dark(#6A00FF,#9A3DFF);fontColor=#ffffff;strokeColor=#3700CC;" vertex="1" parent="1">
          <mxGeometry x="1710" y="-479" width="240" height="100" as="geometry" />
        </mxCell>
        <mxCell id="gVIaWP4cgMclWxlhAjpL-44" value="1" style="edgeLabel;resizable=0;html=1;align=left;verticalAlign=bottom;" connectable="0" vertex="1" parent="1">
          <mxGeometry x="1690" y="-419" as="geometry" />
        </mxCell>
        <mxCell id="gVIaWP4cgMclWxlhAjpL-45" value="BuscadorCompuesto" style="swimlane;fontStyle=1;align=center;verticalAlign=top;childLayout=stackLayout;horizontal=1;startSize=26;horizontalStack=0;resizeParent=1;resizeParentMax=0;resizeLast=0;collapsible=1;marginBottom=0;whiteSpace=wrap;html=1;fillColor=light-dark(#6A00FF,#9A3DFF);fontColor=#ffffff;strokeColor=light-dark(#3700CC,#9A3DFF);" vertex="1" parent="1">
          <mxGeometry x="1705" y="-959" width="250" height="130" as="geometry" />
        </mxCell>
        <mxCell id="gVIaWP4cgMclWxlhAjpL-46" value="" style="line;strokeWidth=1;fillColor=none;align=left;verticalAlign=middle;spacingTop=-1;spacingLeft=3;spacingRight=3;rotatable=0;labelPosition=right;points=[];portConstraint=eastwest;strokeColor=inherit;" vertex="1" parent="gVIaWP4cgMclWxlhAjpL-45">
          <mxGeometry y="26" width="250" height="8" as="geometry" />
        </mxCell>
        <mxCell id="gVIaWP4cgMclWxlhAjpL-47" value="+filtrar (List&amp;lt;Muestra&amp;gt;): List &amp;lt;Muestra&amp;gt;&lt;br&gt;&lt;br&gt;+addBuscadores(IBuscadorMuestra):&lt;br&gt;&lt;br&gt;+removeBuscadores(IBuscadorMuestra);" style="text;strokeColor=none;fillColor=none;align=left;verticalAlign=top;spacingLeft=4;spacingRight=4;overflow=hidden;rotatable=0;points=[[0,0.5],[1,0.5]];portConstraint=eastwest;whiteSpace=wrap;html=1;" vertex="1" parent="gVIaWP4cgMclWxlhAjpL-45">
          <mxGeometry y="34" width="250" height="96" as="geometry" />
        </mxCell>
        <mxCell id="gVIaWP4cgMclWxlhAjpL-48" value="" style="endArrow=block;dashed=1;endFill=0;endSize=12;html=1;rounded=0;entryX=0.5;entryY=0;entryDx=0;entryDy=0;" edge="1" parent="1" target="gVIaWP4cgMclWxlhAjpL-43">
          <mxGeometry width="160" relative="1" as="geometry">
            <mxPoint x="1830" y="-829" as="sourcePoint" />
            <mxPoint x="1900" y="-599" as="targetPoint" />
          </mxGeometry>
        </mxCell>
        <mxCell id="gVIaWP4cgMclWxlhAjpL-49" value="" style="endArrow=diamondThin;endFill=0;endSize=24;html=1;rounded=0;exitX=0;exitY=0;exitDx=0;exitDy=0;entryX=0;entryY=0.5;entryDx=0;entryDy=0;" edge="1" parent="1" source="gVIaWP4cgMclWxlhAjpL-43" target="gVIaWP4cgMclWxlhAjpL-47">
          <mxGeometry width="160" relative="1" as="geometry">
            <mxPoint x="1740" y="-599" as="sourcePoint" />
            <mxPoint x="1900" y="-599" as="targetPoint" />
            <Array as="points">
              <mxPoint x="1550" y="-479" />
              <mxPoint x="1550" y="-879" />
            </Array>
          </mxGeometry>
        </mxCell>
        <mxCell id="gVIaWP4cgMclWxlhAjpL-50" value="BuscadoresMuestras&lt;br&gt;" style="text;html=1;align=center;verticalAlign=middle;resizable=0;points=[];autosize=1;strokeColor=none;fillColor=none;" vertex="1" parent="1">
          <mxGeometry x="1540" y="-899" width="140" height="30" as="geometry" />
        </mxCell>
        <mxCell id="gVIaWP4cgMclWxlhAjpL-51" value="Composite&lt;br&gt;" style="shape=module;align=left;spacingLeft=20;align=center;verticalAlign=top;whiteSpace=wrap;html=1;fillColor=light-dark(#9A3DFF,#9A3DFF);fontColor=#ffffff;strokeColor=#3700CC;" vertex="1" parent="1">
          <mxGeometry x="1605" y="-749" width="100" height="50" as="geometry" />
        </mxCell>
        <mxCell id="gVIaWP4cgMclWxlhAjpL-52" value="&amp;lt;&amp;lt;Abstract&amp;gt;&amp;gt;&lt;br&gt;BuscadorLogico&lt;br&gt;" style="swimlane;fontStyle=1;align=center;verticalAlign=top;childLayout=stackLayout;horizontal=1;startSize=36;horizontalStack=0;resizeParent=1;resizeParentMax=0;resizeLast=0;collapsible=1;marginBottom=0;whiteSpace=wrap;html=1;fillColor=light-dark(#6A00FF,#9A3DFF);fontColor=#ffffff;strokeColor=light-dark(#3700CC,#9A3DFF);" vertex="1" parent="1">
          <mxGeometry x="2260" y="-959" width="270" height="106" as="geometry" />
        </mxCell>
        <mxCell id="gVIaWP4cgMclWxlhAjpL-53" value="" style="line;strokeWidth=1;fillColor=none;align=left;verticalAlign=middle;spacingTop=-1;spacingLeft=3;spacingRight=3;rotatable=0;labelPosition=right;points=[];portConstraint=eastwest;strokeColor=inherit;" vertex="1" parent="gVIaWP4cgMclWxlhAjpL-52">
          <mxGeometry y="36" width="270" height="4" as="geometry" />
        </mxCell>
        <mxCell id="gVIaWP4cgMclWxlhAjpL-54" value="+ new(IBuscadorMuestras, IBuscadorMuestras)&lt;br&gt;&lt;br&gt;+ filtrar (List&amp;lt;Muestra&amp;gt;): List &amp;lt;Muestra&amp;gt;" style="text;strokeColor=none;fillColor=none;align=left;verticalAlign=top;spacingLeft=4;spacingRight=4;overflow=hidden;rotatable=0;points=[[0,0.5],[1,0.5]];portConstraint=eastwest;whiteSpace=wrap;html=1;" vertex="1" parent="gVIaWP4cgMclWxlhAjpL-52">
          <mxGeometry y="40" width="270" height="66" as="geometry" />
        </mxCell>
        <mxCell id="gVIaWP4cgMclWxlhAjpL-55" value="FiltroBusqueda1" style="text;html=1;align=center;verticalAlign=middle;resizable=0;points=[];autosize=1;strokeColor=none;fillColor=none;rotation=315;flipV=1;flipH=1;" vertex="1" parent="1">
          <mxGeometry x="1940" y="-605" width="110" height="30" as="geometry" />
        </mxCell>
        <mxCell id="gVIaWP4cgMclWxlhAjpL-56" value="FiltroBusqueda2" style="text;html=1;align=center;verticalAlign=middle;resizable=0;points=[];autosize=1;strokeColor=none;fillColor=none;rotation=315;" vertex="1" parent="1">
          <mxGeometry x="2020" y="-689" width="110" height="30" as="geometry" />
        </mxCell>
        <mxCell id="gVIaWP4cgMclWxlhAjpL-57" value="" style="endArrow=block;dashed=1;endFill=0;endSize=12;html=1;rounded=0;exitX=0.185;exitY=1.061;exitDx=0;exitDy=0;exitPerimeter=0;entryX=1;entryY=0;entryDx=0;entryDy=0;" edge="1" parent="1" source="gVIaWP4cgMclWxlhAjpL-54" target="gVIaWP4cgMclWxlhAjpL-43">
          <mxGeometry width="160" relative="1" as="geometry">
            <mxPoint x="2110" y="-599" as="sourcePoint" />
            <mxPoint x="2270" y="-599" as="targetPoint" />
          </mxGeometry>
        </mxCell>
        <mxCell id="gVIaWP4cgMclWxlhAjpL-58" value="BuscadorAnd" style="swimlane;fontStyle=1;align=center;verticalAlign=top;childLayout=stackLayout;horizontal=1;startSize=26;horizontalStack=0;resizeParent=1;resizeParentMax=0;resizeLast=0;collapsible=1;marginBottom=0;whiteSpace=wrap;html=1;fillColor=light-dark(#6A00FF,#9A3DFF);fontColor=#ffffff;strokeColor=light-dark(#3700CC,#9A3DFF);" vertex="1" parent="1">
          <mxGeometry x="2630" y="-1169" width="280" height="110" as="geometry" />
        </mxCell>
        <mxCell id="gVIaWP4cgMclWxlhAjpL-59" value="" style="line;strokeWidth=1;fillColor=none;align=left;verticalAlign=middle;spacingTop=-1;spacingLeft=3;spacingRight=3;rotatable=0;labelPosition=right;points=[];portConstraint=eastwest;strokeColor=inherit;" vertex="1" parent="gVIaWP4cgMclWxlhAjpL-58">
          <mxGeometry y="26" width="280" height="8" as="geometry" />
        </mxCell>
        <mxCell id="gVIaWP4cgMclWxlhAjpL-60" value="+ new(IBuscadorMuestras, IBuscadorMuestras)&lt;br&gt;&lt;br&gt;+ filtrar (List&amp;lt;Muestra&amp;gt;): List &amp;lt;Muestra&amp;gt;" style="text;strokeColor=none;fillColor=none;align=left;verticalAlign=top;spacingLeft=4;spacingRight=4;overflow=hidden;rotatable=0;points=[[0,0.5],[1,0.5]];portConstraint=eastwest;whiteSpace=wrap;html=1;" vertex="1" parent="gVIaWP4cgMclWxlhAjpL-58">
          <mxGeometry y="34" width="280" height="76" as="geometry" />
        </mxCell>
        <mxCell id="gVIaWP4cgMclWxlhAjpL-61" value="Extends" style="endArrow=block;endSize=16;endFill=0;html=1;rounded=0;exitX=0.011;exitY=1.039;exitDx=0;exitDy=0;exitPerimeter=0;entryX=1;entryY=0;entryDx=0;entryDy=0;" edge="1" parent="1" source="gVIaWP4cgMclWxlhAjpL-60" target="gVIaWP4cgMclWxlhAjpL-52">
          <mxGeometry width="160" relative="1" as="geometry">
            <mxPoint x="2510" y="-899" as="sourcePoint" />
            <mxPoint x="2670" y="-899" as="targetPoint" />
          </mxGeometry>
        </mxCell>
        <mxCell id="gVIaWP4cgMclWxlhAjpL-62" value="BuscadorOr" style="swimlane;fontStyle=1;align=center;verticalAlign=top;childLayout=stackLayout;horizontal=1;startSize=26;horizontalStack=0;resizeParent=1;resizeParentMax=0;resizeLast=0;collapsible=1;marginBottom=0;whiteSpace=wrap;html=1;fillColor=light-dark(#6A00FF,#9A3DFF);fontColor=#ffffff;strokeColor=light-dark(#3700CC,#9A3DFF);" vertex="1" parent="1">
          <mxGeometry x="2630" y="-869" width="280" height="110" as="geometry" />
        </mxCell>
        <mxCell id="gVIaWP4cgMclWxlhAjpL-63" value="" style="line;strokeWidth=1;fillColor=none;align=left;verticalAlign=middle;spacingTop=-1;spacingLeft=3;spacingRight=3;rotatable=0;labelPosition=right;points=[];portConstraint=eastwest;strokeColor=inherit;" vertex="1" parent="gVIaWP4cgMclWxlhAjpL-62">
          <mxGeometry y="26" width="280" height="8" as="geometry" />
        </mxCell>
        <mxCell id="gVIaWP4cgMclWxlhAjpL-64" value="+ new(IBuscadorMuestras, IBuscadorMuestras)&lt;br&gt;&lt;br&gt;+ filtrar (List&amp;lt;Muestra&amp;gt;): List &amp;lt;Muestra&amp;gt;" style="text;strokeColor=none;fillColor=none;align=left;verticalAlign=top;spacingLeft=4;spacingRight=4;overflow=hidden;rotatable=0;points=[[0,0.5],[1,0.5]];portConstraint=eastwest;whiteSpace=wrap;html=1;" vertex="1" parent="gVIaWP4cgMclWxlhAjpL-62">
          <mxGeometry y="34" width="280" height="76" as="geometry" />
        </mxCell>
        <mxCell id="gVIaWP4cgMclWxlhAjpL-65" value="Extends" style="endArrow=block;endSize=16;endFill=0;html=1;rounded=0;exitX=0;exitY=0.5;exitDx=0;exitDy=0;entryX=1;entryY=1.061;entryDx=0;entryDy=0;entryPerimeter=0;" edge="1" parent="1" source="gVIaWP4cgMclWxlhAjpL-64" target="gVIaWP4cgMclWxlhAjpL-54">
          <mxGeometry width="160" relative="1" as="geometry">
            <mxPoint x="2643" y="-1046" as="sourcePoint" />
            <mxPoint x="2520" y="-952" as="targetPoint" />
          </mxGeometry>
        </mxCell>
        <mxCell id="gVIaWP4cgMclWxlhAjpL-66" value="&lt;br&gt;" style="endArrow=block;endFill=1;html=1;align=left;verticalAlign=top;rounded=0;exitX=0.004;exitY=1.015;exitDx=0;exitDy=0;exitPerimeter=0;entryX=0.817;entryY=-0.04;entryDx=0;entryDy=0;entryPerimeter=0;" edge="1" parent="1" source="gVIaWP4cgMclWxlhAjpL-54" target="gVIaWP4cgMclWxlhAjpL-43">
          <mxGeometry x="0.1345" y="-124" relative="1" as="geometry">
            <mxPoint x="2220" y="-529" as="sourcePoint" />
            <mxPoint x="2290" y="-599" as="targetPoint" />
            <mxPoint x="-1" as="offset" />
          </mxGeometry>
        </mxCell>
        <mxCell id="gVIaWP4cgMclWxlhAjpL-67" value="1" style="text;html=1;align=center;verticalAlign=middle;resizable=0;points=[];autosize=1;strokeColor=none;fillColor=none;" vertex="1" parent="1">
          <mxGeometry x="1890" y="-509" width="30" height="30" as="geometry" />
        </mxCell>
        <mxCell id="gVIaWP4cgMclWxlhAjpL-68" value="" style="endArrow=block;dashed=1;endFill=0;endSize=12;html=1;rounded=0;exitX=-0.007;exitY=0.258;exitDx=0;exitDy=0;entryX=1;entryY=0.25;entryDx=0;entryDy=0;exitPerimeter=0;" edge="1" parent="1" target="gVIaWP4cgMclWxlhAjpL-43">
          <mxGeometry width="160" relative="1" as="geometry">
            <mxPoint x="2258.11" y="-664.616" as="sourcePoint" />
            <mxPoint x="1960" y="-469" as="targetPoint" />
          </mxGeometry>
        </mxCell>
        <mxCell id="gVIaWP4cgMclWxlhAjpL-69" value="" style="endArrow=block;dashed=1;endFill=0;endSize=12;html=1;rounded=0;exitX=-0.007;exitY=0.364;exitDx=0;exitDy=0;entryX=1;entryY=0.5;entryDx=0;entryDy=0;exitPerimeter=0;" edge="1" parent="1" target="gVIaWP4cgMclWxlhAjpL-43">
          <mxGeometry width="160" relative="1" as="geometry">
            <mxPoint x="2258.11" y="-502.9760000000001" as="sourcePoint" />
            <mxPoint x="1960" y="-444" as="targetPoint" />
          </mxGeometry>
        </mxCell>
        <mxCell id="gVIaWP4cgMclWxlhAjpL-70" value="" style="endArrow=block;dashed=1;endFill=0;endSize=12;html=1;rounded=0;exitX=-0.011;exitY=0.318;exitDx=0;exitDy=0;entryX=1;entryY=0.75;entryDx=0;entryDy=0;exitPerimeter=0;" edge="1" parent="1" target="gVIaWP4cgMclWxlhAjpL-43">
          <mxGeometry width="160" relative="1" as="geometry">
            <mxPoint x="2257.03" y="-330.01200000000017" as="sourcePoint" />
            <mxPoint x="1960" y="-419" as="targetPoint" />
          </mxGeometry>
        </mxCell>
        <mxCell id="gVIaWP4cgMclWxlhAjpL-71" value="BuscadorFechaCreacionMuestra" style="swimlane;fontStyle=1;align=center;verticalAlign=top;childLayout=stackLayout;horizontal=1;startSize=26;horizontalStack=0;resizeParent=1;resizeParentMax=0;resizeLast=0;collapsible=1;marginBottom=0;whiteSpace=wrap;html=1;fillColor=light-dark(#6A00FF,#9A3DFF);fontColor=#ffffff;strokeColor=light-dark(#3700CC,#9A3DFF);" vertex="1" parent="1">
          <mxGeometry x="2260" y="-717" width="250" height="86" as="geometry" />
        </mxCell>
        <mxCell id="gVIaWP4cgMclWxlhAjpL-72" value="- Fecha: LocalDate" style="text;strokeColor=none;fillColor=none;align=left;verticalAlign=top;spacingLeft=4;spacingRight=4;overflow=hidden;rotatable=0;points=[[0,0.5],[1,0.5]];portConstraint=eastwest;whiteSpace=wrap;html=1;" vertex="1" parent="gVIaWP4cgMclWxlhAjpL-71">
          <mxGeometry y="26" width="250" height="26" as="geometry" />
        </mxCell>
        <mxCell id="gVIaWP4cgMclWxlhAjpL-73" value="" style="line;strokeWidth=1;fillColor=none;align=left;verticalAlign=middle;spacingTop=-1;spacingLeft=3;spacingRight=3;rotatable=0;labelPosition=right;points=[];portConstraint=eastwest;strokeColor=inherit;" vertex="1" parent="gVIaWP4cgMclWxlhAjpL-71">
          <mxGeometry y="52" width="250" height="8" as="geometry" />
        </mxCell>
        <mxCell id="gVIaWP4cgMclWxlhAjpL-74" value="+filtrar (List&amp;lt;Muestra&amp;gt;): List &amp;lt;Muestra&amp;gt;" style="text;strokeColor=none;fillColor=none;align=left;verticalAlign=top;spacingLeft=4;spacingRight=4;overflow=hidden;rotatable=0;points=[[0,0.5],[1,0.5]];portConstraint=eastwest;whiteSpace=wrap;html=1;" vertex="1" parent="gVIaWP4cgMclWxlhAjpL-71">
          <mxGeometry y="60" width="250" height="26" as="geometry" />
        </mxCell>
        <mxCell id="gVIaWP4cgMclWxlhAjpL-75" value="BuscadorFechaUltimaOpinion" style="swimlane;fontStyle=1;align=center;verticalAlign=top;childLayout=stackLayout;horizontal=1;startSize=26;horizontalStack=0;resizeParent=1;resizeParentMax=0;resizeLast=0;collapsible=1;marginBottom=0;whiteSpace=wrap;html=1;fillColor=light-dark(#6A00FF,#9A3DFF);fontColor=#ffffff;strokeColor=light-dark(#3700CC,#9A3DFF);" vertex="1" parent="1">
          <mxGeometry x="2260" y="-549" width="250" height="86" as="geometry" />
        </mxCell>
        <mxCell id="gVIaWP4cgMclWxlhAjpL-76" value="- Fecha: LocalDate" style="text;strokeColor=none;fillColor=none;align=left;verticalAlign=top;spacingLeft=4;spacingRight=4;overflow=hidden;rotatable=0;points=[[0,0.5],[1,0.5]];portConstraint=eastwest;whiteSpace=wrap;html=1;" vertex="1" parent="gVIaWP4cgMclWxlhAjpL-75">
          <mxGeometry y="26" width="250" height="26" as="geometry" />
        </mxCell>
        <mxCell id="gVIaWP4cgMclWxlhAjpL-77" value="" style="line;strokeWidth=1;fillColor=none;align=left;verticalAlign=middle;spacingTop=-1;spacingLeft=3;spacingRight=3;rotatable=0;labelPosition=right;points=[];portConstraint=eastwest;strokeColor=inherit;" vertex="1" parent="gVIaWP4cgMclWxlhAjpL-75">
          <mxGeometry y="52" width="250" height="8" as="geometry" />
        </mxCell>
        <mxCell id="gVIaWP4cgMclWxlhAjpL-78" value="+filtrar (List&amp;lt;Muestra&amp;gt;): List &amp;lt;Muestra&amp;gt;" style="text;strokeColor=none;fillColor=none;align=left;verticalAlign=top;spacingLeft=4;spacingRight=4;overflow=hidden;rotatable=0;points=[[0,0.5],[1,0.5]];portConstraint=eastwest;whiteSpace=wrap;html=1;" vertex="1" parent="gVIaWP4cgMclWxlhAjpL-75">
          <mxGeometry y="60" width="250" height="26" as="geometry" />
        </mxCell>
        <mxCell id="gVIaWP4cgMclWxlhAjpL-79" value="BuscadorTipoInsecto" style="swimlane;fontStyle=1;align=center;verticalAlign=top;childLayout=stackLayout;horizontal=1;startSize=26;horizontalStack=0;resizeParent=1;resizeParentMax=0;resizeLast=0;collapsible=1;marginBottom=0;whiteSpace=wrap;html=1;fillColor=light-dark(#6A00FF,#9A3DFF);fontColor=#ffffff;strokeColor=light-dark(#3700CC,#9A3DFF);" vertex="1" parent="1">
          <mxGeometry x="2260" y="-379" width="250" height="86" as="geometry" />
        </mxCell>
        <mxCell id="gVIaWP4cgMclWxlhAjpL-80" value="- InsectoABuscar: String" style="text;strokeColor=none;fillColor=none;align=left;verticalAlign=top;spacingLeft=4;spacingRight=4;overflow=hidden;rotatable=0;points=[[0,0.5],[1,0.5]];portConstraint=eastwest;whiteSpace=wrap;html=1;" vertex="1" parent="gVIaWP4cgMclWxlhAjpL-79">
          <mxGeometry y="26" width="250" height="26" as="geometry" />
        </mxCell>
        <mxCell id="gVIaWP4cgMclWxlhAjpL-81" value="" style="line;strokeWidth=1;fillColor=none;align=left;verticalAlign=middle;spacingTop=-1;spacingLeft=3;spacingRight=3;rotatable=0;labelPosition=right;points=[];portConstraint=eastwest;strokeColor=inherit;" vertex="1" parent="gVIaWP4cgMclWxlhAjpL-79">
          <mxGeometry y="52" width="250" height="8" as="geometry" />
        </mxCell>
        <mxCell id="gVIaWP4cgMclWxlhAjpL-82" value="+filtrar (List&amp;lt;Muestra&amp;gt;): List &amp;lt;Muestra&amp;gt;" style="text;strokeColor=none;fillColor=none;align=left;verticalAlign=top;spacingLeft=4;spacingRight=4;overflow=hidden;rotatable=0;points=[[0,0.5],[1,0.5]];portConstraint=eastwest;whiteSpace=wrap;html=1;" vertex="1" parent="gVIaWP4cgMclWxlhAjpL-79">
          <mxGeometry y="60" width="250" height="26" as="geometry" />
        </mxCell>
        <mxCell id="gVIaWP4cgMclWxlhAjpL-83" value="opiniones" style="text;html=1;align=center;verticalAlign=middle;resizable=0;points=[];autosize=1;strokeColor=none;fillColor=none;" vertex="1" parent="1">
          <mxGeometry x="-130" y="140" width="70" height="30" as="geometry" />
        </mxCell>
        <mxCell id="gVIaWP4cgMclWxlhAjpL-84" value="*" style="text;html=1;align=center;verticalAlign=middle;resizable=0;points=[];autosize=1;strokeColor=none;fillColor=none;" vertex="1" parent="1">
          <mxGeometry x="-30" y="-30" width="30" height="30" as="geometry" />
        </mxCell>
        <mxCell id="gVIaWP4cgMclWxlhAjpL-85" value="" style="endArrow=open;endFill=1;endSize=12;html=1;rounded=0;entryX=0;entryY=0.5;entryDx=0;entryDy=0;exitX=1;exitY=0.5;exitDx=0;exitDy=0;" edge="1" parent="1" source="gVIaWP4cgMclWxlhAjpL-10" target="gVIaWP4cgMclWxlhAjpL-42">
          <mxGeometry width="160" relative="1" as="geometry">
            <mxPoint x="1357" y="-30" as="sourcePoint" />
            <mxPoint x="1308" y="107" as="targetPoint" />
          </mxGeometry>
        </mxCell>
        <mxCell id="gVIaWP4cgMclWxlhAjpL-86" value="&lt;p style=&quot;margin:0px;margin-top:4px;text-align:center;&quot;&gt;&lt;i&gt;&amp;lt;&amp;lt;Interface&amp;gt;&amp;gt;&amp;nbsp;&lt;/i&gt;&lt;/p&gt;&lt;p style=&quot;margin:0px;margin-top:4px;text-align:center;&quot;&gt;&lt;b&gt;ISujeto&lt;/b&gt;&lt;/p&gt;&lt;hr size=&quot;1&quot; style=&quot;border-style:solid;&quot;&gt;&lt;p style=&quot;margin:0px;margin-left:4px;&quot;&gt;+ suscribirParaCarga(IObserver): void&lt;br&gt;&lt;/p&gt;&lt;p style=&quot;margin:0px;margin-left:4px;&quot;&gt;+ suscribirParaValidacion(IObserver): void&lt;/p&gt;&lt;p style=&quot;margin:0px;margin-left:4px;&quot;&gt;+ desuscribirParaCarga(IObserver): void&lt;/p&gt;&lt;p style=&quot;margin:0px;margin-left:4px;&quot;&gt;+ desuscribirParaValidacion(IObserver): void&lt;/p&gt;&lt;p style=&quot;margin:0px;margin-left:4px;&quot;&gt;+ notificarCargaMuestra(Muestra): void&lt;/p&gt;&lt;p style=&quot;margin:0px;margin-left:4px;&quot;&gt;+ notificarValidacionMuestra(Muestra): void&lt;/p&gt;" style="verticalAlign=top;align=left;overflow=fill;html=1;whiteSpace=wrap;fillColor=#008a00;strokeColor=#005700;fontColor=#ffffff;" vertex="1" parent="1">
          <mxGeometry x="1470" y="370" width="280" height="140" as="geometry" />
        </mxCell>
        <mxCell id="gVIaWP4cgMclWxlhAjpL-91" value="&lt;p style=&quot;margin:0px;margin-top:4px;text-align:center;&quot;&gt;&lt;i&gt;&amp;lt;&amp;lt;Interface&amp;gt;&amp;gt;&amp;nbsp;&lt;/i&gt;&lt;br&gt;&lt;b&gt;IObserver&lt;/b&gt;&lt;/p&gt;&lt;hr size=&quot;1&quot; style=&quot;border-style:solid;&quot;&gt;&lt;p style=&quot;margin:0px;margin-left:4px;&quot;&gt;+ actualizarPorCargaNueva(ZonaDeCobertura, Muestra): void&lt;/p&gt;&lt;p style=&quot;margin:0px;margin-left:4px;&quot;&gt;+ actualizarPorValidacion(ZonaDeCobertura, Muestra): void&lt;/p&gt;" style="verticalAlign=top;align=left;overflow=fill;html=1;whiteSpace=wrap;fillColor=#008a00;strokeColor=#005700;fontColor=#ffffff;" vertex="1" parent="1">
          <mxGeometry x="1475" y="155" width="355" height="135" as="geometry" />
        </mxCell>
        <mxCell id="gVIaWP4cgMclWxlhAjpL-92" value="" style="endArrow=open;endFill=1;endSize=12;html=1;rounded=0;entryX=0.5;entryY=0;entryDx=0;entryDy=0;exitX=0.455;exitY=0.961;exitDx=0;exitDy=0;exitPerimeter=0;" edge="1" parent="1" source="gVIaWP4cgMclWxlhAjpL-35" target="gVIaWP4cgMclWxlhAjpL-30">
          <mxGeometry width="160" relative="1" as="geometry">
            <mxPoint x="-130" y="110" as="sourcePoint" />
            <mxPoint x="-126" y="250" as="targetPoint" />
          </mxGeometry>
        </mxCell>
        <mxCell id="gVIaWP4cgMclWxlhAjpL-93" value="" style="shape=image;verticalLabelPosition=bottom;labelBackgroundColor=default;verticalAlign=top;aspect=fixed;imageAspect=0;image=data:image/png,iVBORw0KGgoAAAANSUhEUgAAAUgAAACUCAYAAADxn7DTAAAAAXNSR0IArs4c6QAAAARnQU1BAACxjwv8YQUAAAAJcEhZcwAADsMAAA7DAcdvqGQAACxSSURBVHhe7Z0PfFTVte9/SdRb33vpqPmYGV4raEpCIZDaXgkBM95W1E8VUbhBL6bpVasFaYrhgdTe+/yESy62VIQPlE/MlVL/NaZcJReQoj5RfHWixEBbmwhIglFAn5nQ1I5U8U+Rt9be+8w5c86ZZAIDBLK+fDaZvc8+e6+9z5511t77nFkZR9p/dSSnpArMmWeeia6uLuTk5Kh4Mjgf89lnn6m/vREKhVSZvZFqeenOx4h8Xk6mfINh/HH7du3ahaysLJMCzH/x/+FPa5fgqTWPmRSb/tQ7GPrPyfGWL9NSjhYLm/9sPgnCiWcwjL+enh488MADiH5wSMU3vfUhnn77I1/l2F/k+5teMns616PSRJh/a+4xnwThxDNYxt/yXzyKvMfexVsf/A33tfwJoTeeMUeODfn+ppeMI3956cjCETegjiJsYr4zbwuCi8P6aBL6YwLn5uaiu7vbxPw5FhPYD5HPn1NBvsE0/r72r4/hK4VFGPmFQ7i3bLxJ9dKfeuX76+VY6s146X+fd+SG1foAZwjcvQY7/par4uP2rkQxBaZl2Gy8SoGRdEk/XunDC7+J854uO+H1noz0ku7H8UnhLZjxyaN4pK0nLeWvK6rHO+cUq8/HUs5gTQ/2bAN+MVelMRnnnXfeEfNZKcgLb7oRsUZ9kiAIwmAiUDYbHY89bmJApvkbx9KugiAIgw3LorTwKEhBEARB41GQPC8XBEEYjPBapBPPGuSNE6LYvN0kGL53tz0nT8ZDP/uO+SQIgnBq8sbcdpz37yUm1o8p9ve/cw1mVEyKB2dcEAThdMSjIN0mpkVGRob5pHHHBUEQTnXcS4wp72IfOvQxPv74Yxyi8PHHn5g4/aW4IAjC6cBR72IfOnRIvRg+hEIoFMSQIfrvoY9EQQ5a7t+JXfuOxMNv7jfpt7+AFoq3rJlnEnqB87642kQEYWCRyUrPCvzaTrJd7A8/PIS2tp2e8OGHH5kcwuBiNX5z40gcfOUujBx6F5o/AL5y404sUocmonhoBoqnL1U5k0NlVF+ObBMThJMNLzE6dWIm/1SQFfidRreJafHRR4fwEVmRfn+FQcjtF4FfSM0efQ1uxVLcOjqDFOUo3KOOuSxIE0+0NOfh4ddvw1f441duw67XX6ByiASr1Chc4tY171P8fTy8xj7esmY1leHN664vJUtWEAheYnTqxJSn2B9+9JGyIr1/RUEOar54OX7kVE4eSBHOISvxgy24j6zKxjctS5OV6i9BUeDNX2Lk6Il4mBVbglU6EmWW4lScg0JQXmOxZk+4Dec/S4q5ZgsOgvKqqbqur/sJVti6vuwJ91DZugRB6A8p72Jv37GPwl6fv3tNDmFQQdPoulf+YiKknPqy1FiRkrJ781sOS9PFrVd8g6bbf8GO53lqvhQvvU7lf3GItjIV9rF3D3B8F167i/6sfgv277loa/baN7QVWWafLAh9clS72PwQeF9BGHw8PP1cY71p/C01UljP7tIflbVJ094Eq9DmK8Fz6P9zUFKtp8Y/msDxIfhSv6y/1fgN11H9DeyoycB9cSUuCH0j72IL6cVsyGhFdA7O/6pOTuCuUWq6O3KomVKTopzlY22+GeUy/oJmUmw6P4dzcWt/Nrnvn6Aszjef6Od5guCDR0HKu9hCKuhNE8ejPYq/4MAb5mMcY9Gp9cHbce0T2prsfse7w/3w878na/QcFF7BypM3cZJbm0l54z1l0eZ+mctYjTJlhQpCariXGD0KMtkutiA44em13nCxp8P+VhspRZ6G8041K8obR6pNmWt57ZCOvcYmpTq2E4vYGiUFmj3hforfj5Iv7kIjb95w1lShMp5TGzNcxm3I/aAXy1YQXLiXGFP6sQpBEITBgOfHKlgpOkOyXWxBEITTHV5idOrDlHaxBUEQBgOeXWz24OUMgiAIgxmnPpRdbEEQBIPsYguCICTBvcToUZCCIAiCxqMgZRdbEITBinuJ0fMcZPTHEcx+qcCkCIIgDB4++iQT65rtt698FaTzQUk/OB+Tyq43/+gk/65ab6RaXrrzMSKfF5HPH5HPn9NJPn5R5vHfnmdSfKbYsostCMJgxb3EmBEMBhMsyKlj38ETrwRNij/90fDsxoF/qbw3+qPhmXTegUQ+LyKfPyKfP6eTfO/M24Lg4rBJkV1sQRCEpHjWIC+86UZ0PPa4SfGnPxpe1li8iHz+iHz+iHzJSbd8bv3nsSDlXWxBEAYr8ovigiAIKSK72IIgCIbT913sWevR2bMVK0w0/czC+s4e9DQfvxosVjQnqSeVNqbaDyof1dO5HpUmSVOJtbvZJ/BurJ9lktJI5YbOE9KHgnA0yLvYR8vycoS729GeX3wclXAf1E1BXs54VJnosROjf0W40qkIZ12JMSpdEASPguz7XewViHRFsMzEvFQqS2vrBm2h7NixA50bKrVVxBZL3Lox+eIG6zJs7em0rRbLwkk4hzGWnDnGZbNMWxeFEUABKiivkm15JJ6Hg12PrtdKb374Fp3ch+W17JJ8tG8bj5aOAkxWdRpWbiUrrFPJ2rV7LWZxvSZuWWfKajL19VAb186kRJXPYb1x/R5rzkWCjHY7eBdvdyN3XGI/eNoycy12U167L6JobQOKvm3XWvntIuD1NtvPtLtfVHsdci7aaLfN3R6TztaoajOdW1MaAPIrtBXp6Ds+l1swq3G3XV58PJi2iuUpHGfcS4weBZmuXeyCMcDSnBwUrutEoLQGk6PVyMmpRiTmUjC+6C96tCGHzslBPSmlivgXaA5ZcvUqPSenHtHSCspdhfH3RMjqaUc9WVhzWRFMz0XkHn1+dVMMBZMsZTUv4fwDxWX6y9+rdbYMY4d3oIW6purRCDDmSlsRMPSdb6W6QiOmoc4Rz8mbglqlFKIkl9WWAEq/Syp8zja0B2zrTSmmts2o1dE+cbYjFGpA96Xlnn7QbXEo0rmkl0MhjHdc4r37ogjE21OJK+m6tT23T8X6hJRg89TzTT/TtUUYNUqJUZ3z7esXWtOt2zx7vLoW6CC5S0xPO/qqjm4aCy7tTuir8M1cXi2m5FHatmKjcLsQWa5PF4R04tnF5md/nIFxp6lQ22zu6hXIp3/lNEg53vnUna68WcigMmKvb8Eqimft+RN9YTuwadoqOrYK+w/QwYyseL6MTOu8TB3Pos+148gG6sD2ufrYXfVNiAVCGEGfMzMoV0amOecuXBa6DHfx5yx1NjcIZz50E0ZfMBo3rNbnr3qH7aEMZNFnnc0+f0rRFH1+b+Hnxcjf8zudb/UWtNG09KofmmOZXGA39pu6PPG5l5ECMzJSeLObJ69c/93YvieA0GhOvxNXsWLazH3EbbRlzMrivjJlOdqY2I67cfkFl3v7QV2zechYFlLPi10w+iasVvkd+eZuRwcpatWeH15FLWvDiw/xtaB/fC2c5XHQwqm+vPPqImQf3IUtqq2rcMMzHUDuhbjTfW3nX44LvnW3+pwgt7uvOJ/VDgqqr+JtpKD6ktpxwQX43SU0/jo32MeShIT+G4BB5Du2kG75GGc89V3sOWE1ONla2UP/1tAg5fiIMmUzeeje75+eOloJs7XQtbCUDI1cXPB9YNU/FaIB5Tq9F0tiyYv743m6puebVDIUy0YknL++xhzohSXfGA4Mn27OWYDSQABjrjKmHxOLkjp3kBCfZTY9dFhwKZlMhrnbO5B/CVlWMydiDCmmFx40B1LA2Y79+/fjRa+baXPNqIPm6rr371iDGeaQzVxsI0UdHEmSkpYOHNiHVeZISmQXY4Fpm+rnQJCuXB2mjWgAppt697+IJSa7h4S+moE1O+zr5uwrBVmYurz9uOT3NP7IYheEdOLZxeany52BTUx3WmL4HEfo3+e+xzgcpqPAkc91/PDnKhbPr6OHPfk++96XSQXyIfrMmWIRVJuplg55KHtA5509zkqrx5Hpu/Hk7ZR+2FHPki2YTlNia6qW09Cujh02MjjPx5SX9fnmmCfc/iSuHh5D04KQOYcCTWNx6U24n4+b9lllu+Mz1s5BKU0+rbaoKSY+13krX0X78EvwpJ7X4ufmHF2EznP4MPeVKdvZRgpWO/imdeTG1739oMLPcT1PTznf0iO4k5TLS8sS881uaUf+3z+Jy0cH0N4ym87R11hdC1d5M76srpJqnzr0VqPdLyqUYLbKOxslJi205gimv/5rzLDOMW1z99Xta+7EpUeaEvtK5Z2BJ/km8/ev6vLoxlx6pz6nr5DQfwMwiHzHFtItHy8xOuNHsYtdhXAoTHZHeigYqxfelfWiPhGzW9AeCKPCGLN6k0Nvvixr6jIbMxZR7O3VWK3E+kn271vyZlHi+Qd6PZ/XBgMxl3VXt5dqLUBxEmM7OStQwZsUcarUpk+4FGh9NtXVR423Hd199APx4DSMIOXiXINU7Iwilh9GONCu1lm9WG3lNUpb/tpnW3HwoqviG2tqI05t1KxI3HBjyDLtZwsdfWXWIK11S0E4QRzFLna6oEG/JEJfzAo1bZpDU0y28zR6syFYrjcXakiBRO4Zr5Ty3NIGREtrVDqvh6LBbEYYpaV2sec0oCmWT585zzxgE9VDUz9Wk1UlvLHjOH/dZH2+e7dWoRVC7PUX9OZLHFZspDbMxk9v1F6/USn7GlVfMVrYmj1/qNpwYqq2UTzWis1u5cY7vXQOPwWgZHXt4Drb0dVVDqwJe/oh8YxeqNuMVjZsO1p0GU7qpmApb3Kpa0F92WZfJT5Wsu4Awov4WA8q8ttRzxtTVMr4hmg8vWs6XaZSfUut3Re1d7Fd1JVtQkegNLGvcof12ceCkC5S+kVx+cHcRI6nfGx18Q5/3vX+9pX0nxeRzx+Rz5/+1NvnD+YKJwr9PGdFbgRLkyhHQRBOLqnvYgtppk6vq6kpqSAIA4HT911sQRCEY0TexRYEQUiRk7iLLQiCMLDw7GKPGjUqvovNr+20fa8Ro34xxaT4w/kYfkizL7Kzs3Hw4EET8yfV8tKdjxH5vIh8/oh8/pxO8n1zeBte2D3KpMhjPiKfDyKfPyKfP6eTfOIXWxAEIQmyiy0IgpAE2cUWBEFIEdnFFgRBMLiXGD0KMl2/KC4IgnCq4flFcfNXEARBcOFRkLKLLQjCYMW9xJgRDAYTnoOcOvYdPPFK0KT405/nlHJzc9HdHfeR50t/nlNi0vkclcjnReTzR+Tz53SS7515WxBcHDYpMsUWBEFIiudNmgtvuhEdjz1uUvzpj4YfkE/isz/m8iAi9+ThjnXHUz52PcC/ep6T4OZA5WMHVFd3obqXnztjVxM1X3oeOZd4XW05Ye+FTsdkcZzuVYn09J9uk+3EQtPuaqMTb3nsirYG4bj3Bu2mlr0ZMknl4+s2KYqFI25Qv/DeVzuYUGgV1u24AlG61lOSuKRIT7/YpJqPkTdpvJxM+dz6bxDuYrOPmiDaOxId5p9w5oTT91uQxuOk7TirXrmvaN/mcaCQNlghcl2FhYXKiRm7x9ia0vK1UY5x3+QUGqBdZZgcgnCySMMu9gpEuiLJB7Py7aJ9kXBQPlWUIyeGvxz2sfgXih39U5lb2emT+xihnXZph/FdXbttZ1BsUZj87NTL8nLCjr12Nzo9RjmYdSWK0Ir6R1uB0grYXl+1bJ2duq6tK+0416vdy7L1ZMto+VVxO9BieRMdavlAFmS8XxL6zDi7orbVsNOqi8p8/bfotrscYylY7goEm6pti86Ur/svEu8nVUbnVmyNXxNnefoXz+NtjV9DHyy/NU4fPY5r07V7bdwHD1ZWKOdg9U4HXLPHo76jAJOsa5bQH17fOhPp+nJb3MeU0zBznu7/SjzUXEbWbgDhRbptiddKX2N1bWkMdlL7O1WbTbkJ48vkIywncj5XRTjNSP8uNn1Z8uKWTA4a3wJibZuVpbSimSwHywVqQzsKyp1fyHwEo9XqnHqnQyylKKLKhStbSQ17aLDfzEOTlJWaJut6qpuCmGwG/tzS5P662UshWB6ScyN9Kb++yBwwBLo3qvIs5cJxrjc8hxWGVjyqbWQ1xfInK/nZ8VZgzJVGCcwCe3FN3UshfUnnhxE1FlkOO7vi9pHSUG5P2a1qXJk4FPTYFsrvnTZWbpin+th240DnLAoDJLfuv3xUOJVdgCbLm7juakRiVt/yTWaBw8oji9ThZdIP9nBoOUZTCi5+barRhFIsaNK31BVjKYePc7CqkhxzzZbF5eW6WXEmyhvGmOhC1RZ1zNw8WGmx+wo1ttgtb2kN3eRq8b2SRrKmY2o5JdkU2yaAqOqL8ahKaIN2QZt/tVb0tdfnUVoLiq1r4XcDE05Jjv5d7PjdtIJUmXbqz3H7buyF79ZlaDQOqSoxLJemZpvMtHJ2vfpC2tPcWFypKE9/FqQo1IA10Y4ou9/zwoM2meMrG/ZSaCsvrifvYtuGZGJRR92EHdcuEuJ1KO+BBuWmlh3mEzMnKgvV46UwVbi9Pu5NtdVSjBalsCj4uUC1bibOqfusYQiSitho5J77qyZSZEW4Mn5jsly91mJzm923fJOx62hHkm73RbvKtfqgFtOeoTve+UPjSs7dxwnMHJogb9Wj7JEyUd5N5uanjuUX0y3AeJ80N2K+SW+kKoNDk49Nf2KI7jQf1Y3eVqrKG2MCVRhvXYttxXRt/Kx54VTj6N/FVoqKB0Q9Ouhfg1nzSqaUrDv6kmurTUoBgk6X0DSU9ybszifz66ynQayMeVq14FKrEHYN24oi41q01ymgBU+vAzzdMueUkzVz0dcTpkrRfYntSYgnTLmcGxXav/VYmoKxf29loZojfcM+n+sB4+I22dStb6uFLC9l8dg3E8WooO1vnHlwn63YmViUVI4PasppyeTcUEmCu564q1t2+0q3Dsu65ENBu+c8jHSV47wRMSQv6T5fAnF3vuyCto96fEn0se6csquxkkDf1rxw6uNRkGl5F5stmTGtaof2EZPktUK0RdkX1pSRp048rVr4sqMQx3S+uq0INX1MdVbcHEaAd3bNORwa38qLT817hxVQQXxzwtoIsWBrNP+StZg4uj/TawuHNcIbFkmVfTKrZRbW7i6n6f9S75d0Z5TsIgfKQusLKm9uaXyaq6ff5lASKodSqU5l6+hnvm6hkPbbrWYHyupLhG+oat14l0teZQE7sCx1xqWU7Wtjgp+VnYD7pu2AxrDy822VxT66DSlZ88IpSRrexa5CmAa7dgPvA1tZ5Uic5im0xWivLfJivT2tTo1lKLcsSLWQn2ht9Tp1o5zF9M1y7+x2Hjio1g/7Oxmr3DDZYUESNM3uGF6KUrT1c3rNlohreta9t28LVFn02mqZ1TgHpQca/K15ZYEVxG8Cy75b6pj+poi6VuazH3Qt5pUG4ssnaj3SrM8yvGnGGzVKArW0Yq8dKtTSABnez5FQysK15VU3tQR5taXO2OuZennA3iTS1l2y5Z/49V5ZnHgNk0KzmEl2Tm3Nuyx14bTAs4vNz/44A+NO60+4cxjf7+kLYKYfahe7pxkr6dhd4YVoIntQTb3IGutYMwI3rKbzsjLA/0gYXU5mBpWRgSz6vGraJnSY6VpXVzF+98QeIPdC3Ln6Bix/ORivp2ZMG5ZPW6XOX05fyPb/qkyQ68zacSRVB7bPdaRR+NVvdyFG5X+3NotqpFozrWPu+N34NVmvBWYqPC9jE5piAYRGW8fvwu9ItA92vIhVpuwzz8xUZVjnWKHp53Qs3sa7cNmabse0PwMN4bvU+aveoTsK72K/utKU5xdW4jt80xhenlCHCp0bcCeXv6BJbVrwEkX58D1oGHGDltHRz1wWXQZuMH1ejZv+zx57ylq8HQ3UtuCwO+lYYpvU9V0URveaEC6z+pauzQhHm7jONaNvMv2yCjeMoHGQW2HLWR5E04IRuOkhPn53XF4+VpHfkShvrAndl+hd7IrcJiy0+mraCDQcsKb1FSjY04ARNB6yst5GN28+LerEhh/yGGyIj6ee4m66huYa68bbY3Dur+mYNY7nIeOZJnwQCGGEdTxNgX/m3y99oITBJh/jjHteNfzStKl4+9dPmBR/rIJSeZBz8LyqtAxNXdciWlOIsgcGonwDvf9EvmSIfMlJt3xu/ed5k8btk8GP/jSA15/4bt8b/WkAk84OTot8PN3nR1NeXqgeVRlw8hkGbP8ZRD5/RL7kpFs+t0+u1HexheSYzaJkz14KgnBqkjnyJ89i1E+fxc3L/xN1dXX45J/+r4rr8Ay+dsu/mKyCIAinN55d7L/riOCsjia0trbiueeew6r3/qeK6/CyySYIgnD649nFfu3he/HaQ4vwh4fuxbp161Qix63wx0d+qtIEQRAGG541SPlFcUEQBiviF1sQBCEJ4hdbEAQhReRBcZHPg8jnj8jnz+kkn1v/HcW72IIgCKcn7iVGz5s07ifJ/eiPhpc3BbyIfP6IfP6IfMlJt3zuNwllF1sQBMEgu9iCIAhJkF1sQRCEFPEoyLT8orggCMIpSBp+UVwQBOH0xPMutvl7emDcMKTXAX0l1u62/GIPHJRDqVQclR0rqk/9PfaxDM0P32Jifmh3EmtnmmgKsHuG+C+Nn2hPgewuJN196uMaRDh18CjIU3oXW/0u4/jk/nKOilpMG8F+sU10IEBfusm57WiH0x3qiYd9WZfcartlOzb0jagcDdoRFgfjtXLriRqS7OfH40vpGDFjUvzXnBqkYRd7BSJdkT6sNNtVK/ssiQ9wY410qmPmrkp3bX6OicPW5sQ7uPYeZ1sT2hJhB/70peG81jHLAZTDgky0RHSw5HCWu2NHc4KV4nT1qfO7LEhVh5XHYRlwO3ZHEKG8+lii9eMsV3nvMzjTbVeuPo68HLDfabTVo74NcUf/Cnf/uuLqmi2P2PVRsNqo+tRx6bn/nHE/nBaktx1cJrvGDaB04W5fK1KdY13vlRUoRRMWljpub6xcGtodjt54fHRiN48X4wTMvpadNCboc7wPdZu0TyRHPWaMbHXIG7+2cQtSO/2yjutgzUz0+IunJ1ic+jw9niN6bJj64leJ63Cca9nf3BedNKbjYyveL/z98O8/If14drH5QUsr8Gs7jDPNG85GFv37AuX1Px7Cqu01CGe+iiWFhSj5zdsoKH8bT/+IjmWfRRo5gJ4thSgsnIqfhlZhW3kBOtcXoahoKd4PFZBEZyGby1m9DTWlPWikMgopNL5FX7RbHiAZ/wfOIrVeEHpflV+4rhPIv95R/hlKtsX/WKTOU+Fnr+IgOtF2r7fcp/ZmI3zbKiX3j595GxVnNMbPGVK+DatC2aq+rC9we0neRWFktiwxMhWg4u2n8WOW9+wzgEA+sl7kepfg1YOBxHJDuj+43MxLF+CV/6DySJZ4Op8TMu0I/RRTCyfgjnUhZGdnqzLs8GNM+lom3ni5EY0zn0dn/gQ8QO3la+fpX1d88byn0DE9hFd/xvFCLGk5iILJLH8jmnfT5/Fa3tzcB1Ay3PSXKiMTZ2U7ZdCBm4ysv0vSjkbcMaGRev0gWpaE8YN1ZrxQXktBTHid8k+4A42Uvmp8AQ7ufhWN7nG1/30cDFyMSdwvqo8zsXsJjZfwD9D4o6cxvzTTtOd5nJEfAM44W52nxuCfG1FSUkLHSI5AGLespjJUewow5H3rGtLwmfQU5nO9XL4af9z/uo+sfsJbbVhMeR7YukCVq485yqXr8vTbFThjXSGN5SIsbQmhYjv1pxmTZ3NbSN63ebxTHtVPmWHMf/qnSl49fM7A81wuj1er3HunUnmrcdZd5sZrjTefwGNAjQOfY86Qaj4O3vHnDemuN9V8HNItn1v/neF8Cp2fJG+ZOBtdv33cpDjgO5/DeXpeayv+kf7Gmqpd7kYrkXse0L7xGiymokN3P4lIeD6KLi1D17Of4nPE8O7v+A5LWVeOQV4sgoV3dKMbS3DNxsnomfQpDvId+PaxyLldl8j88d0YykIfo7v7r/j0c6q3bROVT4Xc/grap07GpwfpHHD5f8PH3VyeeXKe7+B3fxWv3ZOHGVynq9zdURr85x4iecpQMiIb7ZtmaNnuuwYX3sc5KrGB6jv8cTe6puYihya2G65eTHUBM34ZwRWLilAytQuLD/2NUjrQTG3p+mwxNv1xBsYF7XJjfzTyUrkby3ow6Xzqj710zuemvViMay5czBV6SHhTYFYJvvr5a1h6H58zA6909GDcv1J751B7D7r61xU/c+l1yF9qv1GweM97mD9C11/71GuYMT8XZfR5VS1dlz3NGMsnqTI+1/3rEINRTT78Cbr4g287DtHVoHP/SvJ1z8KTu0m5dLO/7LHmuI0q4rO/qvdqE954uK8D79H1U/WrCt/DnqX6+s649KvI7tiAa6gvKIZHmq5Ajepz6plLcijFetPij3g3VobgISrD9EnrU3QN6bQZW9tRRmPur1RvYjs0bKHOH/EaqvNmoJu+Hz8YH8L34/I5yp1K1yW7HRtv71L5llyXj5+Y8cdj8hCXecG5yKbxvoTyqH7aeD19p0bjX+iYalrHKzRGqeb7NuG1O8bpcil65plLcF3+Ens8k1V8fUMOxrv2U4/HmypMwvjzId31nkz5is7qRuv316v4v5Xk0M3NRdJdbOWHmdeG6kkNdKCBBh7Hvb6Y3c7YH1H+sG2i2Gtctyhn80mxp+kcakoTHTNH96WyUkRTHrL4og3af7Qmsdz5xdkmvRcn8hYuR/Xa57SDWJR6xp+4C1UK5cMpHsxXfVrdVmRclSb34+yEp9cBy20phQoqJv8S54KH3b+axHjC0oPjhoe6zWg1a5rLLslHx/Z+rOSm1I46TMmj8bOtOF5/X1N4Xxx9XNDbBVNTW2uKTdZkQlZ3HyWBjIKa0miij/eZa+1psLNc99jwwTPed0bJvrZJ7td9llrmUXXOB5bS986tHIX08A/Pl6pXrTn8fFK+V0EeO+2IxsxHxS0Ypi1XD7X7EtRLApUb5iGMCKrNgn01OzDuF7xWVAG47rTuctX0SeGW2wca0AlZZg1DbyreSTvJoW8wOdp8N2tt2gk9p1ejdUxNH0pjBSrYQb+jLHXDGj4ptTWq5RFSzh2ot85tcH4h2fk+UPTt9RhLebb1c1Mq5XbEb7Q5aBlLX3iz1la1rR2B0RPpqrlg5/6xVmz2UWjtSS8Y3QTnhwGa3fBUmGWK9Hv4kIItB/WVc4OFFNXcUlWu1dZ4ue6x4YNnvJNStW7PSVFrkHQxlmmDJO2bSEKveBRk37vYVQiHwr3sFNcqizG+sL6ojO6yNKV51ueyzm5BO1lD5WqRnBTaJIdFk4BWDKnDd9wFKGqr7uNOuwJlcQvSyD3WLKcrC8S1UaIsxgJMNhbSipvDCCT58tqw4onZ/UF1RmhKwBs1aoMhvqnAxBDdaT76wcqCFHlLQptYsQcw5qokOzpJISXi6u/aZ1uB0jDy92zr15MA/W6HgXfB41/42fVoQikWNDmsYaWkqMWb/JUCyxvLn2yuUS9jZGWFy4LsA653URFa7+lj99lZrhkbxebrM6txt2sDh2AlSuO9QuUx/f/WH3qvg24oodAITHvQxIXjygl5F7uqhO6sZKfxlGvH1DyyeJxTXCdVGE9WTP50Xmuhu2SbbdHUXr9RKU89bStGC1s75w/1Whi+5KvpsnNay4Gnfu5y/8CbPLnD1EBWcudW6PyeqTlD8t4TISWiy63Ib0+cfiWBrav6bqvOClJADcpFbO31S+36aLpW1LbU1Oe/i71iLH2hOlpcX6havPB6DIFLy+msPpjTgKZYPipUffOATRH6wgbpa23gaTaZQd7pdQDhRXyOFRJlS94OrbyT7WInoh+nakC5XY9SUr1MJ+umYGkTjGzFiMZnGbWYsoksUrpOaoo9tgX1NC8PDk1QV8lR02Vvm9fOrMO0ZzrscZVQrh4bwXK9i73g0m7v2LB25SmPmp7Tt2TJtdXmoDAQcC8xen7uzP1zP370ZxFVL5Kntoh6f6QLFahHTon/PbU/i61MuuVLV70DVj5lOQWxKXSZsiAHnHwG/3y8tszKOXHTUK6vF5HPH87n/rlHjwV5Qt/FVtNY67kxUo65EVQnUY7CcYafUlBWc7oftD+OsMxxC48ssu56n01DQUidgfUutnrLwGxaUJAF6JOI2Tw5pXZHHRs+KsjNVThGPL8o7vZJ8868LQguDpsUf/pjAvPDl+JzIxGRzx+Rzx+RLznplm/q2HfwxCv2sylHsYstCIJweuJeYhxQmzQn4w4k8nkR+fwR+fw5neTrc5NGEARB0JzcXWxBEIQBhGcX+5F1z2DcuHEmKr8oLgjC4MXzi+LX/f5cfD76ChMVBEEQLDILGm7Dtl/ea6Kyiy0IwuDF8y72n97cYT5q0vEutiAIwqlISu9iC4IgDEZWXtae8JiP502aL02bird//YRJ8ac/zynJmwJeRD5/RD5/RL7kpFs+t/47ue9iC4IgDCA872K7p9juJ8n96I+GlzcFvIh8/oh8/oh8yUm3fO43CeVdbEEQBMMJ+UVxQRCEUxH3EqO8iy0IgpAEeRdbEATBMLB+UVwQBGEA4XkX2/wVBEEQXHgUpOxiC4IwWPH8orj7TRq3TwY/+vOckrwp4EXk80fk80fkS0665XP75JIptiAIQhI8b9JceNON6HjscZPiT380/NE96b4CW3smI3pPHqbUaYfwwU05uGzu0d+BKjd0omZMK6ot17Lsk3s+sGrCHRiyfgcmRxMdzjtJtb2efKaOpS53tr7lGaf9G3PGw+m8VN608CLy+SPy+dOfet36b5DuYpPSnV+E1iVT8IhJOS7UTcHStiLM21BpEgRBGMikYRd7BSJdESwzMS9s8fVg6wayiHp6sGPHDnSSgljR3IMeivf0bKUSLHRevgNw2Kpk47QKFCCA8KJOrJ+lMgJD12O3ycflxWHLS5XrLptYudWkd6LCuay6sgLh7o1knQK3PNyMinwgUFpD5TZo2R19xHJHltOH5RH0dK7H+pTboam9fiOipRUmL1vGnVg7U0UcUPqiMLW4ABVU7qtUh7ONbP2quGrrVqynuNWueP8w8fZSIFlFLQvCsXHcdrELxtDUMicHhes6lfLhKWxOTjUisQJMNl/+Fc01pKjqlZkcWtOBgnL+wtdiSl492hFDRE2xVVZV3nKTL1A6zygGrVjQxGXnoL6DFAwpBnVo5lp0lhegvSGHji1FNDfAqYoVYyl9m57IPnJrCZ0HxKiMvOvLsbkthoKxlupbgeL8dmybY6KBMIpUO0xdzUbt+bZDHSKq0EJ5i1W3VmF8Th6mPagOOKD0eyLU4nbU0xR73LZ2BMZcaRTcLbiS2t76rDVJL0A4uFHJUN0EhOc72xukPuP2Uj8jjBojnyAIqXH072LHrZMK5NO/crKUOJ5gzTmItW3W627tB9QXf6Na36vF3viGEysfOmwUFeY0kPIMIDhKR91weUpXztlGpRlmDUMwXjapmUdJyQSKMJEttJFBBGIR1Kv2ktLdZJ1ViWG5MUR3mqiL2mdbEcsdppXTymIUdLRgrjrCuOrKL6ZW9N2O9mgMwaH9sOdmt6A9ECRVSPzzZShCKzabGwX1BCKP6rrYOm037Z111Rhqr5XPtJfaIQhC6hz9u9izxyurJSenHh30r4GsJY4n29iI7vNPd1NQbk1NFyBMRl4yReJb3ihSguajom4vrN9Dn3VBrvnkpgDBhJNc1G0mdVSEK8ksc1qailjUVs4uUm1HathW5y3fIk1r3WwUUeyNK0sXZOHWWFNssp5BSlYQhKPHoyBP7LvYPI3O0VPTPhSuLzujVIIDZVFq6vYnezaqHWTQ9UItTbOBom+vV9PrFmd3WFYdk6Ccj7EdPlTRNLtg7HpcNtI5vWaCGGZN3x3tVXTUm5uYFcabA4IgpEIa3sWuQjgUdkw7jxa2kgII32zWyXgNjSwf5wZHnyiL0bGmeXNYTTNf4DU+noqTRVWhyqvE+kmWauNpfvKpPMPTbJSG1fTaYT8S1lqiti6hjvfdjgIyWVO1qOPwNDs/jHHY6ZheMwFS3rq9ld8uire37rk2mvJPjq99qk2xzvU6IghCSgyod7GrSqoRya3QU9OFpWqzZbzSz2zluXaxfdGbGyitUdPKCrL46vOm6LVKUuHjG8gKo6lvT08Ngm28CaLR1pm9gcFrhHoX20yLeZpNmROm10yMJtiT9BS2IjeC6hJ9PHk7GL3Roy3RZLvYhFH2vIutJWPFCxzc9ZJjes1Q3wR1e2tKo3Z7H5yGvIYo9ZmRz/SFIAhHT8aoUaPiD4pnZWXhv038Jg4+94JJ8YfzMYcPH1Z/eyM7OxsHDx40MX9SLS99+W7BQ813AA+UoGqdj3z//BCa7z4fzxVORjVFVXk169E68QCWlHwv6bOTfvXyY0R34D9Qcqt9VmrtqMHGHVfhzyuuxM2rjHwuuSzS1y+aVPMxA/P62oh8XkQ+fzifW//5un11+mTw42Q+6c6kJZ/jTZrFTvl4t948HmRZgaq85RF0Xd1lv4njg6fe/rxJ40S9VaMfX5ows9HuP5Xufdsmrf1CpJqPGbDX1yDyeRH5/OF8bp9cJ3WKfVKpm4I8Ulwea9Ds1ttTZMOcMHJ6UY6+mDr6ufqoz/Pb6FHpicpREITjx0nexRYEQRg4yC+KC4IgJEF+UVwQBCFFPApSflFcEITBytG/i30a8rWLv47sIfK+siAIGvcSo+cxn28Wvo+3i2bGM7JFaSlN1q6nS/rE9/8TI785Az37fo/O154+YfVKuqRL+sBNf+u/l+BvdfoYk3HxxRcf4WeJGPbtwIGfFxoyZIh6xojh54zee+899bm/6cOHD1cPczLJ8qe7Xlb07KuCgzOdsfJnli/GdRdfiNkvHkDeYzfj7MMfnZB6mZPRXibd9TID9foynM4PB3PdJ7Lek9XedNfLDPbr63HaxXBDeyPVfAxXxg3ojXTX21e+L33jH/DmtT/Bu9/Pw90vRfHnN7Zjy7/fbo56OdHyORmI/edE5PMi8vlzKsrnmWIz6WwAa2nWxL2R7nr7yvf1xU/jsqJ8VI/TbwwdOXIEo0aNStrRJ1o+JwOx/5yIfF5EPn9ORfkG3WM++fn5+MW0Ivyvr59jUoBPP/0UVVXyfoogCIkMOgU5b948XHTu2cg+y25696dZeCp0HXIu+qpJEQRBAP4/53pJ1EbY76AAAAAASUVORK5CYII=;" vertex="1" parent="1">
          <mxGeometry x="660" y="-71" width="328" height="148" as="geometry" />
        </mxCell>
        <mxCell id="gVIaWP4cgMclWxlhAjpL-94" value="" style="endArrow=open;endFill=1;endSize=12;html=1;rounded=0;entryX=0.987;entryY=0.338;entryDx=0;entryDy=0;entryPerimeter=0;exitX=0;exitY=0.5;exitDx=0;exitDy=0;" edge="1" parent="1" source="gVIaWP4cgMclWxlhAjpL-93" target="gVIaWP4cgMclWxlhAjpL-4">
          <mxGeometry width="160" relative="1" as="geometry">
            <mxPoint x="650" y="10" as="sourcePoint" />
            <mxPoint x="520" as="targetPoint" />
          </mxGeometry>
        </mxCell>
        <mxCell id="gVIaWP4cgMclWxlhAjpL-95" value="estadoUsuario" style="text;align=center;fontStyle=1;verticalAlign=middle;spacingLeft=3;spacingRight=3;strokeColor=none;rotatable=0;points=[[0,0.5],[1,0.5]];portConstraint=eastwest;html=1;" vertex="1" parent="1">
          <mxGeometry x="460" y="356" width="80" height="26" as="geometry" />
        </mxCell>
        <mxCell id="gVIaWP4cgMclWxlhAjpL-96" value="" style="endArrow=open;endFill=1;endSize=12;html=1;rounded=0;exitX=0.996;exitY=0.895;exitDx=0;exitDy=0;exitPerimeter=0;entryX=-0.017;entryY=0.854;entryDx=0;entryDy=0;entryPerimeter=0;" edge="1" parent="1" source="gVIaWP4cgMclWxlhAjpL-18" target="gVIaWP4cgMclWxlhAjpL-6">
          <mxGeometry width="160" relative="1" as="geometry">
            <mxPoint x="780" as="sourcePoint" />
            <mxPoint x="470" y="2" as="targetPoint" />
          </mxGeometry>
        </mxCell>
        <mxCell id="gVIaWP4cgMclWxlhAjpL-97" value="UsuarioExperto" style="swimlane;fontStyle=1;align=center;verticalAlign=top;childLayout=stackLayout;horizontal=1;startSize=26;horizontalStack=0;resizeParent=1;resizeParentMax=0;resizeLast=0;collapsible=1;marginBottom=0;whiteSpace=wrap;html=1;fillColor=#dae8fc;strokeColor=#6c8ebf;" vertex="1" parent="1">
          <mxGeometry x="340" y="780" width="160" height="110" as="geometry" />
        </mxCell>
        <mxCell id="gVIaWP4cgMclWxlhAjpL-98" value="" style="line;strokeWidth=1;fillColor=none;align=left;verticalAlign=middle;spacingTop=-1;spacingLeft=3;spacingRight=3;rotatable=0;labelPosition=right;points=[];portConstraint=eastwest;strokeColor=inherit;" vertex="1" parent="gVIaWP4cgMclWxlhAjpL-97">
          <mxGeometry y="26" width="160" height="8" as="geometry" />
        </mxCell>
        <mxCell id="gVIaWP4cgMclWxlhAjpL-99" value="&lt;div&gt;+setState():void&lt;/div&gt;&lt;div&gt;+actualizarEstado():void&lt;/div&gt;&lt;div&gt;+esExperto():boolean&lt;/div&gt;&lt;div&gt;&lt;u&gt;+new(user):void&lt;/u&gt;&lt;br&gt;&lt;/div&gt;" style="text;strokeColor=none;fillColor=none;align=left;verticalAlign=top;spacingLeft=4;spacingRight=4;overflow=hidden;rotatable=0;points=[[0,0.5],[1,0.5]];portConstraint=eastwest;whiteSpace=wrap;html=1;" vertex="1" parent="gVIaWP4cgMclWxlhAjpL-97">
          <mxGeometry y="34" width="160" height="76" as="geometry" />
        </mxCell>
        <mxCell id="gVIaWP4cgMclWxlhAjpL-100" value="UsuarioBasico" style="swimlane;fontStyle=1;align=center;verticalAlign=top;childLayout=stackLayout;horizontal=1;startSize=26;horizontalStack=0;resizeParent=1;resizeParentMax=0;resizeLast=0;collapsible=1;marginBottom=0;whiteSpace=wrap;html=1;fillColor=#dae8fc;strokeColor=#6c8ebf;" vertex="1" parent="1">
          <mxGeometry x="-50" y="771" width="160" height="110" as="geometry" />
        </mxCell>
        <mxCell id="gVIaWP4cgMclWxlhAjpL-101" value="" style="line;strokeWidth=1;fillColor=none;align=left;verticalAlign=middle;spacingTop=-1;spacingLeft=3;spacingRight=3;rotatable=0;labelPosition=right;points=[];portConstraint=eastwest;strokeColor=inherit;" vertex="1" parent="gVIaWP4cgMclWxlhAjpL-100">
          <mxGeometry y="26" width="160" height="8" as="geometry" />
        </mxCell>
        <mxCell id="gVIaWP4cgMclWxlhAjpL-102" value="&lt;div&gt;+setState():void&lt;/div&gt;&lt;div&gt;+actualizarEstado():void&lt;/div&gt;&lt;div&gt;+esExperto():boolean&lt;/div&gt;&lt;div&gt;&lt;u&gt;+new(user):void&lt;/u&gt;&lt;br&gt;&lt;/div&gt;" style="text;strokeColor=none;fillColor=none;align=left;verticalAlign=top;spacingLeft=4;spacingRight=4;overflow=hidden;rotatable=0;points=[[0,0.5],[1,0.5]];portConstraint=eastwest;whiteSpace=wrap;html=1;" vertex="1" parent="gVIaWP4cgMclWxlhAjpL-100">
          <mxGeometry y="34" width="160" height="76" as="geometry" />
        </mxCell>
        <mxCell id="gVIaWP4cgMclWxlhAjpL-103" value="&lt;span style=&quot;font-style: normal;&quot;&gt;&amp;lt;&amp;lt;Abstract&amp;gt;&amp;gt;&lt;br&gt;EstadoUsuario&lt;/span&gt;" style="swimlane;fontStyle=3;align=center;verticalAlign=top;childLayout=stackLayout;horizontal=1;startSize=40;horizontalStack=0;resizeParent=1;resizeParentMax=0;resizeLast=0;collapsible=1;marginBottom=0;whiteSpace=wrap;html=1;fillColor=light-dark(#dae8fc, #1d293b);strokeColor=#6c8ebf;" vertex="1" parent="1">
          <mxGeometry x="110" y="450" width="250" height="184" as="geometry" />
        </mxCell>
        <mxCell id="gVIaWP4cgMclWxlhAjpL-104" value="-user" style="text;strokeColor=none;fillColor=none;align=left;verticalAlign=top;spacingLeft=4;spacingRight=4;overflow=hidden;rotatable=0;points=[[0,0.5],[1,0.5]];portConstraint=eastwest;whiteSpace=wrap;html=1;" vertex="1" parent="gVIaWP4cgMclWxlhAjpL-103">
          <mxGeometry y="40" width="250" height="26" as="geometry" />
        </mxCell>
        <mxCell id="gVIaWP4cgMclWxlhAjpL-105" value="" style="line;strokeWidth=1;fillColor=none;align=left;verticalAlign=middle;spacingTop=-1;spacingLeft=3;spacingRight=3;rotatable=0;labelPosition=right;points=[];portConstraint=eastwest;strokeColor=inherit;" vertex="1" parent="gVIaWP4cgMclWxlhAjpL-103">
          <mxGeometry y="66" width="250" height="8" as="geometry" />
        </mxCell>
        <mxCell id="gVIaWP4cgMclWxlhAjpL-106" value="&lt;div&gt;+setState():void&lt;/div&gt;&lt;div&gt;+getUser():Usuario&lt;/div&gt;&lt;div&gt;+actualizarEstado(cantMuestrasEnviadas, cantMuestrasOpinadas):void&lt;/div&gt;&lt;div&gt;+esExperto():boolean&lt;br&gt;&lt;/div&gt;" style="text;strokeColor=none;fillColor=none;align=left;verticalAlign=top;spacingLeft=4;spacingRight=4;overflow=hidden;rotatable=0;points=[[0,0.5],[1,0.5]];portConstraint=eastwest;whiteSpace=wrap;html=1;" vertex="1" parent="gVIaWP4cgMclWxlhAjpL-103">
          <mxGeometry y="74" width="250" height="110" as="geometry" />
        </mxCell>
        <mxCell id="gVIaWP4cgMclWxlhAjpL-107" value="" style="endArrow=block;endSize=16;endFill=0;html=1;rounded=0;exitX=-0.025;exitY=0.079;exitDx=0;exitDy=0;entryX=0.832;entryY=0.982;entryDx=0;entryDy=0;entryPerimeter=0;exitPerimeter=0;" edge="1" parent="1" source="gVIaWP4cgMclWxlhAjpL-99" target="gVIaWP4cgMclWxlhAjpL-106">
          <mxGeometry width="160" relative="1" as="geometry">
            <mxPoint x="320" y="810" as="sourcePoint" />
            <mxPoint x="320" y="650" as="targetPoint" />
            <Array as="points">
              <mxPoint x="318" y="820" />
            </Array>
          </mxGeometry>
        </mxCell>
        <mxCell id="gVIaWP4cgMclWxlhAjpL-108" value="" style="endArrow=block;endSize=16;endFill=0;html=1;rounded=0;entryX=0.148;entryY=1.009;entryDx=0;entryDy=0;entryPerimeter=0;exitX=1.013;exitY=0.197;exitDx=0;exitDy=0;exitPerimeter=0;" edge="1" parent="1" source="gVIaWP4cgMclWxlhAjpL-102" target="gVIaWP4cgMclWxlhAjpL-106">
          <mxGeometry width="160" relative="1" as="geometry">
            <mxPoint x="147" y="850" as="sourcePoint" />
            <mxPoint x="150" y="660" as="targetPoint" />
            <Array as="points">
              <mxPoint x="147" y="820" />
            </Array>
          </mxGeometry>
        </mxCell>
        <mxCell id="gVIaWP4cgMclWxlhAjpL-109" value="Muestras" style="text;html=1;align=center;verticalAlign=middle;resizable=0;points=[];autosize=1;strokeColor=none;fillColor=none;" vertex="1" parent="1">
          <mxGeometry x="555" y="-32" width="70" height="30" as="geometry" />
        </mxCell>
        <mxCell id="gVIaWP4cgMclWxlhAjpL-110" value="" style="endArrow=open;endFill=1;endSize=12;html=1;rounded=0;exitX=0.25;exitY=1;exitDx=0;exitDy=0;entryX=1.002;entryY=0.196;entryDx=0;entryDy=0;entryPerimeter=0;" edge="1" parent="1" source="gVIaWP4cgMclWxlhAjpL-93" target="gVIaWP4cgMclWxlhAjpL-7">
          <mxGeometry width="160" relative="1" as="geometry">
            <mxPoint x="757" y="60" as="sourcePoint" />
            <mxPoint x="564" y="200" as="targetPoint" />
            <Array as="points">
              <mxPoint x="740" y="320" />
            </Array>
          </mxGeometry>
        </mxCell>
        <mxCell id="gVIaWP4cgMclWxlhAjpL-111" value="Usuarios" style="text;html=1;align=center;verticalAlign=middle;resizable=0;points=[];autosize=1;strokeColor=none;fillColor=none;" vertex="1" parent="1">
          <mxGeometry x="750" y="94" width="70" height="30" as="geometry" />
        </mxCell>
        <mxCell id="gVIaWP4cgMclWxlhAjpL-112" value="ZonasDeCobertura" style="text;html=1;align=center;verticalAlign=middle;resizable=0;points=[];autosize=1;strokeColor=none;fillColor=none;" vertex="1" parent="1">
          <mxGeometry x="920" y="80" width="130" height="30" as="geometry" />
        </mxCell>
        <mxCell id="gVIaWP4cgMclWxlhAjpL-113" value="" style="endArrow=open;endFill=1;endSize=12;html=1;rounded=0;entryX=0;entryY=0.5;entryDx=0;entryDy=0;exitX=1;exitY=0.5;exitDx=0;exitDy=0;" edge="1" parent="1" source="gVIaWP4cgMclWxlhAjpL-93" target="gVIaWP4cgMclWxlhAjpL-10">
          <mxGeometry width="160" relative="1" as="geometry">
            <mxPoint x="1210" y="-220" as="sourcePoint" />
            <mxPoint x="1507" y="-220" as="targetPoint" />
            <Array as="points">
              <mxPoint x="1180" />
              <mxPoint x="1180" y="-157" />
            </Array>
          </mxGeometry>
        </mxCell>
        <mxCell id="gVIaWP4cgMclWxlhAjpL-114" value="Organizaciones" style="text;html=1;align=center;verticalAlign=middle;resizable=0;points=[];autosize=1;strokeColor=none;fillColor=none;" vertex="1" parent="1">
          <mxGeometry x="988" y="-32" width="110" height="30" as="geometry" />
        </mxCell>
        <mxCell id="gVIaWP4cgMclWxlhAjpL-115" value="" style="endArrow=open;endFill=1;endSize=12;html=1;rounded=0;exitX=0.494;exitY=0.99;exitDx=0;exitDy=0;exitPerimeter=0;entryX=0.482;entryY=0.006;entryDx=0;entryDy=0;entryPerimeter=0;" edge="1" parent="1" source="gVIaWP4cgMclWxlhAjpL-16" target="gVIaWP4cgMclWxlhAjpL-37">
          <mxGeometry width="160" relative="1" as="geometry">
            <mxPoint x="1090" y="450" as="sourcePoint" />
            <mxPoint x="1250" y="450" as="targetPoint" />
          </mxGeometry>
        </mxCell>
        <mxCell id="gVIaWP4cgMclWxlhAjpL-116" value="epicentro" style="text;html=1;align=center;verticalAlign=middle;resizable=0;points=[];autosize=1;strokeColor=none;fillColor=none;" vertex="1" parent="1">
          <mxGeometry x="1160" y="450" width="70" height="30" as="geometry" />
        </mxCell>
        <mxCell id="gVIaWP4cgMclWxlhAjpL-117" value="" style="endArrow=open;endFill=1;endSize=12;html=1;rounded=0;entryX=-0.005;entryY=0.369;entryDx=0;entryDy=0;entryPerimeter=0;exitX=0.803;exitY=0.984;exitDx=0;exitDy=0;exitPerimeter=0;" edge="1" parent="1" source="gVIaWP4cgMclWxlhAjpL-93" target="gVIaWP4cgMclWxlhAjpL-14">
          <mxGeometry width="160" relative="1" as="geometry">
            <mxPoint x="920" y="100" as="sourcePoint" />
            <mxPoint x="960" y="200" as="targetPoint" />
            <Array as="points">
              <mxPoint x="923" y="203" />
            </Array>
          </mxGeometry>
        </mxCell>
        <mxCell id="gVIaWP4cgMclWxlhAjpL-118" value="" style="endArrow=block;dashed=1;endFill=0;endSize=12;html=1;rounded=0;exitX=0.607;exitY=0.987;exitDx=0;exitDy=0;exitPerimeter=0;entryX=0.127;entryY=0.004;entryDx=0;entryDy=0;entryPerimeter=0;" edge="1" parent="1" source="gVIaWP4cgMclWxlhAjpL-12" target="gVIaWP4cgMclWxlhAjpL-91">
          <mxGeometry width="160" relative="1" as="geometry">
            <mxPoint x="1352.5499999999997" y="481.3620000000001" as="sourcePoint" />
            <mxPoint x="1540" y="480" as="targetPoint" />
          </mxGeometry>
        </mxCell>
        <mxCell id="gVIaWP4cgMclWxlhAjpL-119" value="observadores" style="text;html=1;align=center;verticalAlign=middle;resizable=0;points=[];autosize=1;strokeColor=none;fillColor=none;" vertex="1" parent="1">
          <mxGeometry x="1360" y="140" width="100" height="30" as="geometry" />
        </mxCell>
        <mxCell id="gVIaWP4cgMclWxlhAjpL-120" value="" style="endArrow=open;endFill=1;endSize=12;html=1;rounded=0;exitX=1;exitY=0.285;exitDx=0;exitDy=0;exitPerimeter=0;entryX=0.004;entryY=0.308;entryDx=0;entryDy=0;entryPerimeter=0;" edge="1" parent="1" source="gVIaWP4cgMclWxlhAjpL-14" target="gVIaWP4cgMclWxlhAjpL-91">
          <mxGeometry width="160" relative="1" as="geometry">
            <mxPoint x="1375.42" y="250" as="sourcePoint" />
            <mxPoint x="1490" y="250" as="targetPoint" />
          </mxGeometry>
        </mxCell>
        <mxCell id="gVIaWP4cgMclWxlhAjpL-121" value="" style="endArrow=block;dashed=1;endFill=0;endSize=12;html=1;rounded=0;entryX=-0.001;entryY=0.434;entryDx=0;entryDy=0;exitX=1.003;exitY=0.868;exitDx=0;exitDy=0;exitPerimeter=0;entryPerimeter=0;" edge="1" parent="1" source="gVIaWP4cgMclWxlhAjpL-14" target="gVIaWP4cgMclWxlhAjpL-86">
          <mxGeometry width="160" relative="1" as="geometry">
            <mxPoint x="1380" y="240" as="sourcePoint" />
            <mxPoint x="1370" y="492" as="targetPoint" />
            <Array as="points">
              <mxPoint x="1440" y="240" />
              <mxPoint x="1440" y="430" />
            </Array>
          </mxGeometry>
        </mxCell>
        <mxCell id="gVIaWP4cgMclWxlhAjpL-122" value="" style="endArrow=open;endFill=1;endSize=12;html=1;rounded=0;exitX=1;exitY=0.5;exitDx=0;exitDy=0;entryX=0.993;entryY=0.106;entryDx=0;entryDy=0;entryPerimeter=0;" edge="1" parent="1" source="gVIaWP4cgMclWxlhAjpL-12" target="gVIaWP4cgMclWxlhAjpL-40">
          <mxGeometry width="160" relative="1" as="geometry">
            <mxPoint x="1872" y="220" as="sourcePoint" />
            <mxPoint x="1760" y="812.8571428571429" as="targetPoint" />
            <Array as="points">
              <mxPoint x="1840" y="-40" />
              <mxPoint x="1840" y="720" />
            </Array>
          </mxGeometry>
        </mxCell>
        <mxCell id="gVIaWP4cgMclWxlhAjpL-123" value="opiniones" style="text;html=1;align=center;verticalAlign=middle;resizable=0;points=[];autosize=1;strokeColor=none;fillColor=none;" vertex="1" parent="1">
          <mxGeometry x="105" y="-32" width="70" height="30" as="geometry" />
        </mxCell>
        <mxCell id="gVIaWP4cgMclWxlhAjpL-124" value="ubicacion" style="text;html=1;align=center;verticalAlign=middle;resizable=0;points=[];autosize=1;strokeColor=none;fillColor=none;" vertex="1" parent="1">
          <mxGeometry x="1650" y="-70" width="70" height="30" as="geometry" />
        </mxCell>
        <mxCell id="gVIaWP4cgMclWxlhAjpL-125" value="&lt;p style=&quot;margin:0px;margin-top:4px;text-align:center;&quot;&gt;Â«interfaceÂ»&amp;nbsp;&lt;br&gt;&lt;b&gt;FuncionalidadExterna&lt;/b&gt;&lt;/p&gt;&lt;hr size=&quot;1&quot; style=&quot;border-style:solid;&quot;&gt;&lt;p style=&quot;margin:0px;margin-left:4px;&quot;&gt;+ nuevoEvento(Organizacion, ZonaDeCobertura, Muestra): void&lt;/p&gt;" style="verticalAlign=top;align=left;overflow=fill;html=1;whiteSpace=wrap;" vertex="1" parent="1">
          <mxGeometry x="1180" y="-400" width="404.58" height="80" as="geometry" />
        </mxCell>
        <mxCell id="gVIaWP4cgMclWxlhAjpL-126" value="" style="endArrow=open;endFill=1;endSize=12;html=1;rounded=0;entryX=0.5;entryY=1;entryDx=0;entryDy=0;exitX=0.475;exitY=-0.003;exitDx=0;exitDy=0;exitPerimeter=0;" edge="1" parent="1" source="gVIaWP4cgMclWxlhAjpL-9" target="gVIaWP4cgMclWxlhAjpL-125">
          <mxGeometry width="160" relative="1" as="geometry">
            <mxPoint x="1510" y="-80" as="sourcePoint" />
            <mxPoint x="1571.145" y="-230" as="targetPoint" />
            <Array as="points">
              <mxPoint x="1475" y="-270" />
              <mxPoint x="1382" y="-270" />
            </Array>
          </mxGeometry>
        </mxCell>
        <mxCell id="gVIaWP4cgMclWxlhAjpL-127" value="Observer" style="shape=module;align=left;spacingLeft=20;align=center;verticalAlign=top;whiteSpace=wrap;html=1;fillColor=#008a00;strokeColor=#005700;fontColor=#ffffff;" vertex="1" parent="1">
          <mxGeometry x="1290" y="74" width="100" height="50" as="geometry" />
        </mxCell>
        <mxCell id="gVIaWP4cgMclWxlhAjpL-128" value="" style="endArrow=open;endFill=1;endSize=12;html=1;rounded=0;exitX=0.35;exitY=1.115;exitDx=0;exitDy=0;exitPerimeter=0;entryX=0.384;entryY=-0.022;entryDx=0;entryDy=0;entryPerimeter=0;" edge="1" parent="1" source="gVIaWP4cgMclWxlhAjpL-8" target="gVIaWP4cgMclWxlhAjpL-103">
          <mxGeometry width="160" relative="1" as="geometry">
            <mxPoint x="360" y="361" as="sourcePoint" />
            <mxPoint x="598" y="360" as="targetPoint" />
            <Array as="points">
              <mxPoint x="456" y="400" />
              <mxPoint x="206" y="400" />
            </Array>
          </mxGeometry>
        </mxCell>
        <mxCell id="gVIaWP4cgMclWxlhAjpL-129" value="State" style="shape=module;align=left;spacingLeft=20;align=center;verticalAlign=top;whiteSpace=wrap;html=1;fillColor=#dae8fc;strokeColor=#6c8ebf;" vertex="1" parent="1">
          <mxGeometry x="485" y="-419" width="100" height="50" as="geometry" />
        </mxCell>
        <mxCell id="gVIaWP4cgMclWxlhAjpL-130" value="" style="endArrow=block;dashed=1;endFill=0;endSize=12;html=1;rounded=0;exitX=0.53;exitY=0.988;exitDx=0;exitDy=0;exitPerimeter=0;entryX=0.5;entryY=0;entryDx=0;entryDy=0;" edge="1" parent="1" source="gVIaWP4cgMclWxlhAjpL-148" target="gVIaWP4cgMclWxlhAjpL-21">
          <mxGeometry width="160" relative="1" as="geometry">
            <mxPoint x="329.3600000000001" y="-527.8059999999998" as="sourcePoint" />
            <mxPoint x="329" y="-430" as="targetPoint" />
          </mxGeometry>
        </mxCell>
        <mxCell id="gVIaWP4cgMclWxlhAjpL-131" value="" style="endArrow=block;dashed=1;endFill=0;endSize=12;html=1;exitX=0.493;exitY=1.003;exitDx=0;exitDy=0;exitPerimeter=0;entryX=0.25;entryY=0;entryDx=0;entryDy=0;rounded=0;curved=0;" edge="1" parent="1" source="gVIaWP4cgMclWxlhAjpL-143" target="gVIaWP4cgMclWxlhAjpL-21">
          <mxGeometry width="160" relative="1" as="geometry">
            <mxPoint x="100.96000000000004" y="-528.6120000000001" as="sourcePoint" />
            <mxPoint x="220" y="-290.9" as="targetPoint" />
            <Array as="points">
              <mxPoint x="28" y="-480" />
              <mxPoint x="270" y="-480" />
            </Array>
          </mxGeometry>
        </mxCell>
        <mxCell id="gVIaWP4cgMclWxlhAjpL-132" value="" style="endArrow=block;dashed=1;endFill=0;endSize=12;html=1;rounded=0;exitX=0.527;exitY=1.018;exitDx=0;exitDy=0;exitPerimeter=0;curved=0;entryX=0.75;entryY=0;entryDx=0;entryDy=0;" edge="1" parent="1" source="gVIaWP4cgMclWxlhAjpL-150" target="gVIaWP4cgMclWxlhAjpL-21">
          <mxGeometry width="160" relative="1" as="geometry">
            <mxPoint x="565.8000000000002" y="-527.9879999999998" as="sourcePoint" />
            <mxPoint x="390" y="-420" as="targetPoint" />
            <Array as="points">
              <mxPoint x="622" y="-480" />
              <mxPoint x="390" y="-480" />
            </Array>
          </mxGeometry>
        </mxCell>
        <mxCell id="gVIaWP4cgMclWxlhAjpL-133" value="" style="endArrow=open;endFill=1;endSize=12;html=1;rounded=0;entryX=0.475;entryY=1.007;entryDx=0;entryDy=0;entryPerimeter=0;exitX=0.453;exitY=-0.009;exitDx=0;exitDy=0;exitPerimeter=0;" edge="1" parent="1" source="gVIaWP4cgMclWxlhAjpL-1" target="gVIaWP4cgMclWxlhAjpL-21">
          <mxGeometry width="160" relative="1" as="geometry">
            <mxPoint x="300" y="-220" as="sourcePoint" />
            <mxPoint x="360" y="-160" as="targetPoint" />
          </mxGeometry>
        </mxCell>
        <mxCell id="gVIaWP4cgMclWxlhAjpL-134" value="State" style="shape=module;align=left;spacingLeft=20;align=center;verticalAlign=top;whiteSpace=wrap;html=1;fillColor=#dae8fc;strokeColor=#6c8ebf;" vertex="1" parent="1">
          <mxGeometry x="185" y="700" width="100" height="50" as="geometry" />
        </mxCell>
        <mxCell id="gVIaWP4cgMclWxlhAjpL-136" value="funcionalidades" style="text;html=1;align=center;verticalAlign=middle;resizable=0;points=[];autosize=1;strokeColor=none;fillColor=none;" vertex="1" parent="1">
          <mxGeometry x="1470" y="-240" width="110" height="30" as="geometry" />
        </mxCell>
        <mxCell id="gVIaWP4cgMclWxlhAjpL-137" value="CalculadorGeodesico" style="swimlane;fontStyle=1;align=center;verticalAlign=top;childLayout=stackLayout;horizontal=1;startSize=25;horizontalStack=0;resizeParent=1;resizeParentMax=0;resizeLast=0;collapsible=1;marginBottom=0;whiteSpace=wrap;html=1;" vertex="1" parent="1">
          <mxGeometry x="530" y="530" width="383" height="80" as="geometry" />
        </mxCell>
        <mxCell id="gVIaWP4cgMclWxlhAjpL-138" value="+ calcularDistancia(Ubicacion, Ubicacion): double&lt;div&gt;+ filtrarUbicaciones(Ubicacion,&lt;span style=&quot;background-color: transparent; color: light-dark(rgb(0, 0, 0), rgb(255, 255, 255));&quot;&gt;List&amp;lt;Ubicacion&amp;gt;, Int&lt;/span&gt;&lt;span style=&quot;background-color: transparent; color: light-dark(rgb(0, 0, 0), rgb(255, 255, 255));&quot;&gt;):&amp;nbsp;&lt;/span&gt;&lt;span style=&quot;background-color: transparent; color: light-dark(rgb(0, 0, 0), rgb(255, 255, 255));&quot;&gt;List&amp;lt;Ubicacion&amp;gt;&lt;/span&gt;&lt;/div&gt;" style="text;strokeColor=none;fillColor=none;align=left;verticalAlign=top;spacingLeft=4;spacingRight=4;overflow=hidden;rotatable=0;points=[[0,0.5],[1,0.5]];portConstraint=eastwest;whiteSpace=wrap;html=1;" vertex="1" parent="gVIaWP4cgMclWxlhAjpL-137">
          <mxGeometry y="25" width="383" height="55" as="geometry" />
        </mxCell>
        <mxCell id="gVIaWP4cgMclWxlhAjpL-139" value="" style="endArrow=open;endFill=1;endSize=12;html=1;rounded=0;entryX=0.51;entryY=0.966;entryDx=0;entryDy=0;entryPerimeter=0;exitX=-0.003;exitY=0.303;exitDx=0;exitDy=0;exitPerimeter=0;" edge="1" parent="1" source="gVIaWP4cgMclWxlhAjpL-40" target="gVIaWP4cgMclWxlhAjpL-138">
          <mxGeometry width="160" relative="1" as="geometry">
            <mxPoint x="725" y="750" as="sourcePoint" />
            <mxPoint x="870" y="670" as="targetPoint" />
            <Array as="points">
              <mxPoint x="725" y="750" />
            </Array>
          </mxGeometry>
        </mxCell>
        <mxCell id="gVIaWP4cgMclWxlhAjpL-140" value="calculador" style="text;html=1;align=center;verticalAlign=middle;resizable=0;points=[];autosize=1;strokeColor=none;fillColor=none;" vertex="1" parent="1">
          <mxGeometry x="870" y="710" width="80" height="30" as="geometry" />
        </mxCell>
        <mxCell id="gVIaWP4cgMclWxlhAjpL-142" value="NoVerificada" style="swimlane;fontStyle=1;align=center;verticalAlign=top;childLayout=stackLayout;horizontal=1;startSize=25;horizontalStack=0;resizeParent=1;resizeParentMax=0;resizeLast=0;collapsible=1;marginBottom=0;whiteSpace=wrap;html=1;fillColor=#dae8fc;strokeColor=#6c8ebf;" vertex="1" parent="1">
          <mxGeometry x="-105" y="-610" width="270" height="80" as="geometry" />
        </mxCell>
        <mxCell id="gVIaWP4cgMclWxlhAjpL-143" value="&lt;p style=&quot;margin: 0px 0px 0px 4px;&quot;&gt;+ puedeOpinar(Muestra,Usuario): Boolean&lt;/p&gt;&lt;p style=&quot;margin: 0px 0px 0px 4px;&quot;&gt;+ esVerificada():Boolean&lt;/p&gt;&lt;p style=&quot;margin: 0px 0px 0px 4px;&quot;&gt;+ verificarCambioEstado(): void&lt;/p&gt;" style="text;strokeColor=none;fillColor=none;align=left;verticalAlign=top;spacingLeft=4;spacingRight=4;overflow=hidden;rotatable=0;points=[[0,0.5],[1,0.5]];portConstraint=eastwest;whiteSpace=wrap;html=1;" vertex="1" parent="gVIaWP4cgMclWxlhAjpL-142">
          <mxGeometry y="25" width="270" height="55" as="geometry" />
        </mxCell>
        <mxCell id="gVIaWP4cgMclWxlhAjpL-147" value="EnVerificacion" style="swimlane;fontStyle=1;align=center;verticalAlign=top;childLayout=stackLayout;horizontal=1;startSize=25;horizontalStack=0;resizeParent=1;resizeParentMax=0;resizeLast=0;collapsible=1;marginBottom=0;whiteSpace=wrap;html=1;fillColor=#dae8fc;strokeColor=#6c8ebf;" vertex="1" parent="1">
          <mxGeometry x="185" y="-610" width="270" height="80" as="geometry" />
        </mxCell>
        <mxCell id="gVIaWP4cgMclWxlhAjpL-148" value="&lt;p style=&quot;margin: 0px 0px 0px 4px;&quot;&gt;+ puedeOpinar(Muestra,Usuario): Boolean&lt;/p&gt;&lt;p style=&quot;margin: 0px 0px 0px 4px;&quot;&gt;+ esVerificada():Boolean&lt;/p&gt;&lt;p style=&quot;margin: 0px 0px 0px 4px;&quot;&gt;+ verificarCambioEstado(): void&lt;/p&gt;" style="text;strokeColor=none;fillColor=none;align=left;verticalAlign=top;spacingLeft=4;spacingRight=4;overflow=hidden;rotatable=0;points=[[0,0.5],[1,0.5]];portConstraint=eastwest;whiteSpace=wrap;html=1;" vertex="1" parent="gVIaWP4cgMclWxlhAjpL-147">
          <mxGeometry y="25" width="270" height="55" as="geometry" />
        </mxCell>
        <mxCell id="gVIaWP4cgMclWxlhAjpL-149" value="Verificada" style="swimlane;fontStyle=1;align=center;verticalAlign=top;childLayout=stackLayout;horizontal=1;startSize=25;horizontalStack=0;resizeParent=1;resizeParentMax=0;resizeLast=0;collapsible=1;marginBottom=0;whiteSpace=wrap;html=1;fillColor=#dae8fc;strokeColor=#6c8ebf;" vertex="1" parent="1">
          <mxGeometry x="480" y="-610" width="270" height="80" as="geometry" />
        </mxCell>
        <mxCell id="gVIaWP4cgMclWxlhAjpL-150" value="&lt;p style=&quot;margin: 0px 0px 0px 4px;&quot;&gt;+ puedeOpinar(Muestra,Usuario): Boolean&lt;/p&gt;&lt;p style=&quot;margin: 0px 0px 0px 4px;&quot;&gt;+ esVerificada():Boolean&lt;/p&gt;&lt;p style=&quot;margin: 0px 0px 0px 4px;&quot;&gt;+ verificarCambioEstado(): void&lt;/p&gt;" style="text;strokeColor=none;fillColor=none;align=left;verticalAlign=top;spacingLeft=4;spacingRight=4;overflow=hidden;rotatable=0;points=[[0,0.5],[1,0.5]];portConstraint=eastwest;whiteSpace=wrap;html=1;" vertex="1" parent="gVIaWP4cgMclWxlhAjpL-149">
          <mxGeometry y="25" width="270" height="55" as="geometry" />
        </mxCell>
      </root>
    </mxGraphModel>
  </diagram>
</mxfile>
